# This file uses centimeters as units for non-parametric coordinates.

mtllib bomber.mtl
g default
v 0.000000 2.939943 0.963800
v 0.000000 3.139884 0.963800
v -3.314052 3.139884 -2.667503
v 3.314052 3.139884 -2.667503
v -3.314052 2.939943 -2.667503
v 3.314052 2.939943 -2.667503
v 1.988431 3.139884 -2.667503
v 1.988431 2.939943 -2.667503
v 0.636020 3.139884 -3.422718
v 0.636020 2.939943 -3.422718
v -0.636019 3.139884 -3.422718
v -0.636019 2.939943 -3.422718
v -1.988431 3.139884 -2.667503
v -1.988431 2.939943 -2.667503
v 0.000000 2.991013 -5.263302
v 0.000000 2.939943 -5.263302
v 0.243415 2.984308 -5.161134
v 2.097646 2.984308 -4.117615
v 2.097646 2.939943 -4.117615
v 0.243415 2.939943 -5.161134
v -2.097646 2.984308 -4.117615
v -0.243415 2.984308 -5.161134
v -0.243415 2.939943 -5.161134
v -2.097646 2.939943 -4.117615
v -4.070895 3.091571 -5.295929
v -2.836879 3.091571 -5.780156
v -2.836879 2.988255 -5.780156
v -4.070895 2.988255 -5.295929
v 2.836879 3.091571 -5.780156
v 4.070895 3.091571 -5.295929
v 4.070895 2.988255 -5.295929
v 2.836879 2.988255 -5.780156
vt 0.490069 0.711828
vt 0.376265 0.578433
vt 0.423519 0.580013
vt 0.472628 0.554706
vt 0.927678 0.263403
vt 0.794057 0.400327
vt 0.612534 0.586337
vt 0.681902 0.517721
vt 0.714924 0.483883
vt 0.233378 0.786925
vt 0.684540 0.520294
vt 0.617638 0.591317
vt 0.347311 0.770713
vt 0.326585 0.719500
vt 0.077983 0.239787
vt 0.202155 0.385335
vt 0.370840 0.583061
vt 0.484644 0.716457
vt 0.280952 0.469365
vt 0.311638 0.505334
vt 0.281164 0.544611
vt 0.278148 0.471756
vt 0.120442 0.287118
vt 0.169695 0.344850
vt 0.314124 0.619674
vt 0.119238 0.288145
vt 0.834253 0.367082
vt 0.887254 0.312771
vt 0.266806 0.697892
vt 0.835385 0.368187
vt 0.034290 0.185765
vt 0.264271 0.688825
vt 0.396987 0.468033
vt 0.352421 0.483820
vt 0.207580 0.380707
vt 0.642649 0.493530
vt 0.599237 0.474799
vt 0.565280 0.584756
vt 0.571071 0.532916
vt 0.506218 0.493508
vt 0.517972 0.556223
vt 0.488548 0.492917
vt 0.421206 0.527902
vt 0.083408 0.235158
vt 0.497503 0.489639
vt 0.258554 0.586134
vt 0.308834 0.507726
vt 0.364958 0.629974
vt 0.245036 0.832745
vt 0.717561 0.486457
vt 0.341429 0.817626
vt 0.799160 0.405308
vt 0.295508 0.768143
vt 0.888387 0.313876
vt 0.932782 0.268383
vt 0.268966 0.680664
vt 0.168492 0.345877
vt 0.332230 0.674484
vt 0.032904 0.186947
vt 0.495173 0.716809
vt 0.979988 0.217402
vt 0.981291 0.218675
vn 0.000000 1.000000 0.000000
vn 0.001150 0.999981 -0.006080
vn 0.004219 0.999953 -0.008711
vn 0.006889 0.999863 -0.015080
vn -0.006889 0.999863 -0.015080
vn -0.004219 0.999953 -0.008711
vn -0.001150 0.999981 -0.006080
vn -0.365283 0.000000 -0.930896
vn -0.365283 0.000000 -0.930896
vn -0.365283 0.000000 -0.930896
vn -0.365283 0.000000 -0.930896
vn -0.001150 -0.999981 -0.006079
vn -0.000342 -0.999998 -0.001807
vn 0.000000 -1.000000 0.000000
vn 0.000000 -1.000000 -0.000000
vn 0.000342 -0.999998 -0.001807
vn 0.001150 -0.999981 -0.006079
vn 0.000000 -1.000000 0.000000
vn 0.738636 0.000000 0.674104
vn 0.738636 0.000000 0.674104
vn 0.738636 0.000000 0.674104
vn 0.738636 0.000000 0.674104
vn -0.738636 0.000000 0.674104
vn -0.738636 0.000000 0.674104
vn -0.738636 0.000000 0.674104
vn -0.738636 0.000000 0.674104
vn 0.365283 0.000000 -0.930897
vn 0.365283 0.000000 -0.930897
vn 0.365283 0.000000 -0.930897
vn 0.365283 0.000000 -0.930897
vn 0.490445 0.000000 -0.871472
vn 0.490445 0.000000 -0.871472
vn 0.490445 0.000000 -0.871472
vn 0.490445 0.000000 -0.871472
vn -0.490445 0.000000 -0.871472
vn -0.490445 0.000000 -0.871472
vn -0.490445 0.000000 -0.871472
vn -0.490445 0.000000 -0.871472
vn 0.000000 0.996745 -0.080619
vn 0.945161 0.000000 -0.326604
vn 0.945161 0.000000 -0.326604
vn 0.945161 0.000000 -0.326604
vn 0.945161 0.000000 -0.326604
vn 0.000000 -1.000000 -0.000000
vn -0.945161 0.000000 -0.326604
vn -0.945161 0.000000 -0.326604
vn -0.945161 0.000000 -0.326604
vn -0.945161 0.000000 -0.326604
vn 0.057216 0.993137 -0.102001
vn 0.057216 0.993137 -0.102001
vn 0.997176 0.000000 0.075102
vn 0.997176 0.000000 0.075102
vn 0.997176 0.000000 0.075102
vn 0.997176 0.000000 0.075102
vn 0.000000 -1.000000 -0.000000
vn 0.000000 -1.000000 -0.000000
vn -0.975434 0.000000 0.220292
vn -0.975434 0.000000 0.220292
vn -0.975434 0.000000 0.220292
vn -0.975434 0.000000 0.220292
vn -0.057216 0.993138 -0.102001
vn -0.057216 0.993138 -0.102001
vn 0.975434 0.000000 0.220292
vn 0.975434 0.000000 0.220292
vn 0.975434 0.000000 0.220292
vn 0.975434 0.000000 0.220292
vn 0.000000 -1.000000 0.000000
vn 0.000000 -1.000000 0.000000
vn -0.997176 0.000000 0.075102
vn -0.997176 0.000000 0.075102
vn -0.997176 0.000000 0.075102
vn -0.997176 0.000000 0.075102
vn -0.003024 0.999868 -0.015983
vn -0.003024 0.999868 -0.015983
vn 0.964800 0.000000 -0.262986
vn 0.964800 0.000000 -0.262985
vn 0.964800 0.000000 -0.262985
vn 0.964800 0.000000 -0.262985
vn -0.003024 -0.999868 -0.015983
vn -0.003024 -0.999868 -0.015983
vn -0.960956 0.000000 0.276703
vn -0.960956 0.000000 0.276703
vn -0.960956 0.000000 0.276703
vn -0.960956 0.000000 0.276703
vn 0.003024 0.999868 -0.015983
vn 0.003024 0.999868 -0.015983
vn 0.960956 0.000000 0.276703
vn 0.960956 0.000000 0.276703
vn 0.960956 0.000000 0.276703
vn 0.960956 0.000000 0.276703
vn 0.003024 -0.999868 -0.015983
vn 0.003024 -0.999868 -0.015983
vn -0.964800 0.000000 -0.262985
vn -0.964800 0.000000 -0.262985
vn -0.964800 0.000000 -0.262985
vn -0.964800 0.000000 -0.262985
s 1
g pCube1
usemtl initialShadingGroup
f 2/1/1 4/2/2 7/3/3 9/4/4 11/41/5 13/38/6 3/7/7
s off
f 25/8/8 26/9/9 27/50/10 28/11/11
s 2
f 5/51/12 14/13/13 12/14/14 10/58/15 8/48/16 6/17/17 1/18/18
s off
f 1/18/19 6/17/20 4/2/21 2/1/22
f 5/12/23 1/60/24 2/1/25 3/7/26
f 29/19/27 30/20/28 31/47/29 32/22/30
f 17/23/31 18/24/32 19/57/33 20/26/34
f 21/27/35 22/28/36 23/54/37 24/30/38
s 1
f 11/41/5 9/4/4 15/45/39
s off
f 9/44/40 10/15/41 16/59/42 15/31/43
s 2
f 10/58/15 12/14/14 16/32/44
s off
f 12/55/45 11/5/46 15/61/47 16/62/48
s 1
f 9/4/4 7/3/3 18/43/49 17/42/50
s off
f 7/35/51 8/16/52 19/57/53 18/24/54
s 2
f 8/48/16 10/58/15 20/56/55 19/25/56
s off
f 10/15/57 9/44/58 17/23/59 20/26/60
s 1
f 13/38/6 11/41/5 22/40/61 21/39/62
s off
f 11/5/63 12/55/64 23/54/65 22/28/66
s 2
f 12/14/14 14/13/13 24/53/67 23/29/68
s off
f 14/52/69 13/6/70 21/27/71 24/30/72
s 1
f 3/7/7 13/38/6 26/37/73 25/36/74
s off
f 13/6/75 14/52/76 27/50/77 26/9/78
s 2
f 14/13/13 5/51/12 28/49/79 27/10/80
s off
f 5/12/81 3/7/82 25/8/83 28/11/84
s 1
f 7/3/3 4/2/2 30/34/85 29/33/86
s off
f 4/2/87 6/17/88 31/47/89 30/20/90
s 2
f 6/17/17 8/48/16 32/46/91 31/21/92
s off
f 8/16/93 7/35/94 29/19/95 32/22/96
