# This file uses centimeters as units for non-parametric coordinates.

mtllib hammer.mtl
g default
v -0.502628 8.467720 -0.494732
v -0.494732 8.467720 0.502628
v -0.502628 9.465111 -0.494732
v -0.494732 9.465111 0.502628
v 0.494732 9.465111 -0.502628
v 0.502628 9.465111 0.494732
v 0.494732 8.467720 -0.502628
v 0.502628 8.467720 0.494732
v 0.382589 8.592937 1.149211
v -0.364345 8.592937 1.155125
v 0.382589 9.339893 1.149211
v -0.364345 9.339893 1.155125
v 0.364345 8.592937 -1.155125
v -0.382589 8.592937 -1.149211
v -0.382589 9.339893 -1.149211
v 0.364345 9.339893 -1.155125
v 0.387111 8.592937 1.720412
v -0.359823 8.592937 1.726326
v 0.387111 9.339893 1.720412
v -0.359823 9.339893 1.726326
v 0.359823 8.592937 -1.726326
v -0.387111 8.592937 -1.720412
v -0.387111 9.339893 -1.720412
v 0.359823 9.339893 -1.726326
v 0.631889 8.349299 1.863518
v -0.602304 8.349299 1.873289
v 0.631889 9.583530 1.863518
v -0.602304 9.583530 1.873289
v 0.602304 8.349299 -1.873289
v -0.631889 8.349299 -1.863518
v -0.631889 9.583530 -1.863518
v 0.602304 9.583530 -1.873289
v 0.638904 8.349299 2.749486
v -0.595289 8.349299 2.759257
v 0.638904 9.583530 2.749486
v -0.595289 9.583530 2.759257
v 0.595289 8.349299 -2.759257
v -0.638904 8.349299 -2.749486
v -0.638904 9.583530 -2.749486
v 0.595289 9.583530 -2.759257
v 0.021807 9.974900 2.754372
v 0.014793 9.974900 1.868404
v 0.013644 9.576751 1.723369
v 0.009122 9.576751 1.152168
v 0.003948 9.781380 0.498680
v -0.003948 9.781380 -0.498680
v -0.009122 9.576751 -1.152168
v -0.013644 9.576751 -1.723369
v -0.014793 9.974900 -1.868404
v -0.021807 9.974900 -2.754372
v -0.021807 7.957930 -2.754372
v -0.014793 7.957930 -1.868404
v -0.013644 8.356080 -1.723369
v -0.009122 8.356080 -1.152168
v -0.005107 8.288018 -0.645067
v 0.005107 8.288018 0.645067
v 0.009122 8.356080 1.152168
v 0.013644 8.356080 1.723369
v 0.014793 7.957930 1.868404
v 0.021807 7.957930 2.754372
v 0.954035 8.966415 2.746991
v 0.947021 8.966415 1.861023
v 0.577829 8.966415 1.718902
v 0.573306 8.966415 1.147701
v 0.757288 8.966415 0.492716
v 0.749391 8.966415 -0.504644
v 0.555062 8.966415 -1.156635
v 0.550540 8.966415 -1.727836
v 0.917435 8.966415 -1.875784
v 0.910421 8.966415 -2.761752
v -0.021807 8.966415 -2.754372
v -0.954035 8.966415 -2.746991
v -0.947021 8.966415 -1.861023
v -0.577829 8.966415 -1.718902
v -0.573306 8.966415 -1.147701
v -0.757288 8.966415 -0.492716
v -0.749391 8.966415 0.504644
v -0.555062 8.966415 1.156635
v -0.550540 8.966415 1.727836
v -0.917435 8.966415 1.875784
v -0.910421 8.966415 2.761752
v 0.021807 8.966415 2.754372
v -0.498680 9.512345 0.003948
v 0.000000 9.858570 0.000000
v 0.498680 9.512345 -0.003948
v 0.753340 8.966415 -0.005964
v 0.498680 8.420485 -0.003948
v -0.498680 8.420485 0.003948
v -0.753340 8.966415 0.005964
v -0.503943 -0.027883 -0.496026
v -0.496026 -0.027883 0.503943
v -0.503943 3.619459 -0.496026
v -0.496026 3.619459 0.503943
v 0.496026 3.619459 -0.503943
v 0.503943 3.619459 0.496026
v 0.496026 -0.027883 -0.503943
v 0.503943 -0.027883 0.496026
v -0.288671 3.843000 -0.328998
v -0.283425 3.843000 0.333527
v 0.288671 3.843000 0.328998
v 0.283425 3.843000 -0.333527
v -0.234271 8.016402 -0.243566
v -0.230385 8.016402 0.247245
v 0.197324 8.016402 0.283220
v 0.192815 8.016402 -0.286309
v 0.256860 8.016402 -0.002034
v 0.386673 3.843000 -0.003061
v 0.675868 3.619459 -0.005351
v 0.675868 -0.027883 -0.005351
v -0.675868 -0.027883 0.005351
v -0.675868 3.619459 0.005351
v -0.386673 3.843000 0.003061
v -0.310580 8.016402 0.002459
v 0.023397 8.016402 0.502446
v 0.015438 8.016402 -0.502753
v -0.003338 3.843000 -0.421564
v -0.006074 3.619459 -0.767184
v -0.006074 -0.027883 -0.767184
v 0.000000 -0.027883 0.000000
v 0.006074 -0.027883 0.767184
v 0.006074 3.619459 0.767184
v 0.003338 3.843000 0.421564
v 0.245344 7.632277 0.311152
v 0.003086 7.632277 0.389744
v -0.240387 7.632277 0.314997
v -0.328301 7.632277 0.002599
v -0.245344 7.632277 -0.311152
v -0.003086 7.632277 -0.389744
v 0.240387 7.632277 -0.314997
v 0.328301 7.632277 -0.002599
vt 0.340193 0.676935
vt 0.380567 0.676935
vt 0.380404 0.715236
vt 0.340030 0.711922
vt 0.673902 0.898341
vt 0.339710 0.734111
vt 0.714596 0.870737
vt 0.674222 0.874051
vt 0.674385 0.835750
vt 0.714760 0.835750
vt 0.344156 0.893049
vt 0.397827 0.864399
vt 0.427147 0.919326
vt 0.603481 0.720230
vt 0.380241 0.916975
vt 0.157680 0.676935
vt 0.104010 0.705586
vt 0.420779 0.641947
vt 0.432311 0.629340
vt 0.580620 0.792930
vt 0.473606 0.650732
vt 0.634011 0.835750
vt 0.633847 0.870737
vt 0.580859 0.861952
vt 0.580981 0.835750
vt 0.633528 0.892926
vt 0.420779 0.711922
vt 0.473606 0.703137
vt 0.580620 0.878570
vt 0.420942 0.676935
vt 0.473729 0.676935
vt 0.726129 0.788154
vt 0.340030 0.641947
vt 0.287041 0.650732
vt 0.767185 0.792930
vt 0.287041 0.703137
vt 0.287164 0.676935
vt 0.767185 0.878570
vt 0.767546 0.835750
vt 0.767424 0.861952
vt 0.534374 0.792930
vt 0.519852 0.650732
vt 0.534613 0.861952
vt 0.534736 0.835750
vt 0.519852 0.703137
vt 0.534374 0.878570
vt 0.519975 0.676935
vt 0.240795 0.650732
vt 0.813431 0.792930
vt 0.240795 0.703137
vt 0.240918 0.676935
vt 0.813431 0.878570
vt 0.813792 0.835750
vt 0.813670 0.861952
vt 0.522631 0.764996
vt 0.531751 0.633639
vt 0.523027 0.879045
vt 0.523229 0.835750
vt 0.531751 0.720230
vt 0.522631 0.906503
vt 0.531953 0.676935
vt 0.229209 0.633639
vt 0.825173 0.764996
vt 0.229209 0.720230
vt 0.229411 0.676935
vt 0.825173 0.906503
vt 0.825771 0.835750
vt 0.825569 0.879045
vt 0.157479 0.720230
vt 0.603481 0.633639
vt 0.451297 0.879045
vt 0.133331 0.760512
vt 0.050339 0.734236
vt 0.086424 0.758162
vt 0.451499 0.835750
vt 0.825569 0.792454
vt 0.050540 0.690941
vt 0.813670 0.809547
vt 0.767424 0.809547
vt 0.714596 0.800762
vt 0.633847 0.800762
vt 0.580859 0.809547
vt 0.534613 0.809547
vt 0.523027 0.792454
vt 0.451297 0.792454
vt 0.674222 0.797448
vt 0.380404 0.638633
vt 0.339925 0.045911
vt 0.380518 0.045911
vt 0.380518 0.301802
vt 0.339925 0.301802
vt 0.714703 0.460617
vt 0.674336 0.460617
vt 0.674336 0.204726
vt 0.714703 0.204726
vt 0.736015 0.204726
vt 0.673902 0.204726
vt 0.401397 0.045911
vt 0.611789 0.204726
vt 0.611789 0.460617
vt 0.420885 0.301802
vt 0.736015 0.460617
vt 0.380332 0.317485
vt 0.353448 0.317485
vt 0.639771 0.476300
vt 0.407088 0.317485
vt 0.700906 0.476300
vt 0.674150 0.476300
vt 0.345953 0.317485
vt 0.380295 0.583334
vt 0.354893 0.583334
vt 0.411639 0.583334
vt 0.405587 0.583334
vt 0.699405 0.742149
vt 0.674113 0.742149
vt 0.705457 0.742149
vt 0.647266 0.476300
vt 0.648711 0.742149
vt 0.633743 0.460617
vt 0.633743 0.204726
vt 0.633223 0.769098
vt 0.650972 0.769098
vt 0.400102 0.610284
vt 0.380284 0.610284
vt 0.360365 0.610284
vt 0.339380 0.610284
vt 0.697083 0.769098
vt 0.674067 0.769098
vt 0.327858 0.629340
vt 0.714607 0.769098
vt 0.621676 0.788154
vt 0.420764 0.610284
vt 0.348530 0.583334
vt 0.708033 0.476300
vt 0.642348 0.742149
vt 0.414215 0.317485
vt 0.442198 0.301802
vt 0.380084 0.045911
vt 0.380084 0.045911
vt 0.317971 0.045911
vt 0.317971 0.301802
vt 0.380084 0.739527
vt 0.714277 0.892926
vt 0.074689 0.650660
vt 0.450901 0.906503
vt 0.121595 0.653010
vt 0.896903 0.764996
vt 0.603086 0.606181
vt 0.531355 0.606181
vt 0.519613 0.634115
vt 0.473367 0.634115
vt 0.286802 0.634115
vt 0.240556 0.634115
vt 0.228814 0.606181
vt 0.157083 0.747688
vt 0.228814 0.747688
vt 0.240556 0.719755
vt 0.286802 0.719755
vt 0.420459 0.734111
vt 0.473367 0.719755
vt 0.519613 0.719755
vt 0.531355 0.747688
vt 0.603683 0.676935
vt 0.344358 0.849753
vt 0.368508 0.809472
vt 0.897501 0.835750
vt 0.897299 0.792454
vt 0.415414 0.811823
vt 0.450901 0.764996
vt 0.603086 0.747688
vt 0.897299 0.879045
vt 0.157083 0.606181
vt 0.896903 0.906503
vt 0.157479 0.633639
vt 0.442198 0.045911
vt 0.442198 0.045911
vt 0.420885 0.045911
vt 0.441764 0.045911
vn -0.989145 0.000000 -0.146943
vn -0.999969 -0.000000 0.007917
vn -0.898821 0.438258 0.007116
vn -0.887320 0.442275 -0.130596
vn -0.535937 0.824540 -0.181396
vn -0.553275 0.832987 0.004381
vn -0.000000 1.000000 -0.000000
vn -0.001685 0.977079 -0.212870
vn 0.885141 0.442275 -0.144629
vn 0.898821 0.438258 -0.007116
vn 0.999969 0.000000 -0.007917
vn 0.986694 -0.000000 -0.162586
vn 0.007917 -0.000000 0.999969
vn 0.007917 -0.000000 0.999969
vn 0.007917 0.000000 0.999969
vn 0.007917 0.000000 0.999969
vn -0.007917 0.000000 -0.999969
vn -0.007917 -0.000000 -0.999969
vn -0.007917 0.000000 -0.999969
vn -0.007917 0.000000 -0.999969
vn -0.447551 -0.872232 0.197255
vn 0.001716 -0.976216 0.216792
vn 0.000958 -0.992648 0.121037
vn -0.490927 -0.864370 0.108877
vn 0.989145 -0.000000 0.146943
vn 0.887320 0.442275 0.130596
vn 0.881818 0.449728 0.141920
vn 0.986995 0.000000 0.160748
vn 0.001685 0.977079 0.212870
vn -0.532998 0.824540 0.189860
vn -0.528149 0.834710 0.155941
vn 0.001451 0.983053 0.183317
vn -0.885141 0.442275 0.144629
vn -0.986694 -0.000000 0.162586
vn -0.984326 0.000000 0.176356
vn -0.879460 0.449728 0.155864
vn -0.001716 -0.976216 -0.216792
vn -0.450618 -0.872232 -0.190144
vn -0.492590 -0.864370 -0.101091
vn -0.000958 -0.992648 -0.121036
vn -0.881818 0.449728 -0.141920
vn -0.986995 0.000000 -0.160748
vn -0.001451 0.983053 -0.183317
vn -0.530552 0.834710 -0.147559
vn 0.984326 0.000000 -0.176356
vn 0.879460 0.449728 -0.155864
vn -0.005133 -0.761323 -0.648352
vn -0.455631 -0.711749 -0.534615
vn 0.744469 0.382378 -0.547314
vn 0.789974 0.000000 -0.613141
vn -0.455633 0.711750 -0.534613
vn -0.005133 0.761325 -0.648350
vn -0.799583 0.000000 -0.600555
vn -0.753043 0.382378 -0.535457
vn -0.447109 -0.711748 0.541764
vn 0.005133 -0.761323 0.648352
vn -0.744469 0.382378 0.547314
vn -0.789974 0.000000 0.613141
vn 0.005133 0.761325 0.648350
vn -0.447111 0.711750 0.541760
vn 0.799583 0.000000 0.600555
vn 0.753043 0.382378 0.535457
vn -0.007439 -0.342279 -0.939569
vn -0.219393 -0.334490 -0.916506
vn 0.353116 0.184029 -0.917302
vn 0.359252 0.000000 -0.933241
vn -0.219394 0.334491 -0.916506
vn -0.007438 0.342281 -0.939568
vn -0.373984 0.000000 -0.927435
vn -0.367597 0.184028 -0.911595
vn -0.204854 -0.334489 0.919865
vn 0.007438 -0.342279 0.939569
vn -0.353116 0.184029 0.917302
vn -0.359252 0.000000 0.933241
vn 0.007438 0.342281 0.939568
vn -0.204856 0.334491 0.919864
vn 0.373984 0.000000 0.927435
vn 0.367597 0.184028 0.911595
vn -0.535553 -0.844491 0.004240
vn -0.000000 -1.000000 0.000000
vn -0.000000 -1.000000 0.000000
vn -0.535553 -0.844491 0.004240
vn 0.999969 0.000000 -0.007917
vn 0.890567 0.454798 -0.007051
vn 0.890567 0.454798 -0.007051
vn 0.999969 0.000000 -0.007917
vn -0.000000 1.000000 -0.000000
vn -0.535553 0.844491 0.004240
vn -0.535553 0.844491 0.004240
vn -0.000000 1.000000 -0.000000
vn -0.890567 0.454799 0.007051
vn -0.999969 -0.000000 0.007917
vn -0.999969 0.000000 0.007917
vn -0.890567 0.454799 0.007051
vn 0.000000 -1.000000 -0.000000
vn -0.535553 -0.844491 0.004240
vn -0.535553 -0.844491 0.004240
vn 0.000000 -1.000000 -0.000000
vn -0.999969 0.000000 0.007917
vn -0.890567 0.454798 0.007051
vn -0.890567 0.454798 0.007051
vn -0.999969 0.000000 0.007917
vn -0.535553 0.844491 0.004241
vn 0.000000 1.000000 0.000000
vn 0.000000 1.000000 0.000000
vn -0.535553 0.844491 0.004241
vn 0.890567 0.454799 -0.007051
vn 0.999969 -0.000000 -0.007917
vn 0.999969 0.000000 -0.007917
vn 0.890567 0.454799 -0.007051
vn 0.535553 0.844491 -0.004241
vn 0.535553 0.844491 -0.004241
vn 0.447111 0.711750 -0.541760
vn 0.204856 0.334491 -0.919864
vn 0.530552 0.834710 0.147559
vn 0.535937 0.824540 0.181396
vn 0.553275 0.832987 -0.004381
vn 0.532998 0.824540 -0.189860
vn 0.528149 0.834710 -0.155941
vn 0.455633 0.711750 0.534613
vn 0.219394 0.334491 0.916505
vn 0.535553 0.844491 -0.004240
vn 0.535553 0.844491 -0.004240
vn -0.007917 -0.000000 -0.999969
vn -0.007917 0.000000 -0.999969
vn 0.535553 -0.844491 -0.004240
vn 0.535553 -0.844491 -0.004240
vn 0.455631 -0.711749 0.534615
vn 0.219393 -0.334490 0.916506
vn 0.490927 -0.864370 -0.108877
vn 0.447551 -0.872232 -0.197255
vn 0.450618 -0.872232 0.190145
vn 0.492590 -0.864370 0.101091
vn 0.447109 -0.711748 -0.541764
vn 0.204854 -0.334489 -0.919865
vn 0.535553 -0.844491 -0.004240
vn 0.535553 -0.844491 -0.004240
vn 0.007917 -0.000000 0.999969
vn 0.007917 0.000000 0.999969
vn 0.890567 -0.454798 -0.007051
vn 0.890567 -0.454798 -0.007051
vn 0.744470 -0.382377 -0.547314
vn 0.353116 -0.184028 -0.917302
vn 0.881818 -0.449728 0.141919
vn 0.887321 -0.442275 0.130596
vn 0.898821 -0.438258 -0.007117
vn 0.885141 -0.442275 -0.144629
vn 0.879461 -0.449728 -0.155864
vn 0.753043 -0.382377 0.535457
vn 0.367597 -0.184028 0.911596
vn 0.890567 -0.454798 -0.007050
vn 0.890567 -0.454798 -0.007050
vn -0.007917 -0.000000 -0.999969
vn -0.007917 -0.000000 -0.999969
vn -0.007917 -0.000000 -0.999969
vn -0.890567 -0.454798 0.007051
vn -0.890567 -0.454798 0.007051
vn -0.744470 -0.382377 0.547314
vn -0.353116 -0.184028 0.917302
vn -0.881818 -0.449728 -0.141919
vn -0.887321 -0.442275 -0.130595
vn -0.898821 -0.438258 0.007117
vn -0.885141 -0.442275 0.144629
vn -0.879461 -0.449728 0.155864
vn -0.753043 -0.382377 -0.535457
vn -0.367597 -0.184028 -0.911596
vn -0.890567 -0.454798 0.007050
vn -0.890567 -0.454798 0.007050
vn 0.007917 -0.000000 0.999969
vn 0.007917 -0.000000 0.999969
vn 0.007917 -0.000000 0.999969
vn -0.945932 0.000000 -0.324366
vn -0.999969 0.000000 0.007917
vn -0.999969 0.000000 0.007917
vn -0.945932 0.000000 -0.324366
vn 0.940677 0.000000 -0.339302
vn 0.999969 0.000000 -0.007917
vn 0.999969 0.000000 -0.007917
vn 0.940677 0.000000 -0.339302
vn 0.000000 -1.000000 0.000000
vn 0.000000 -1.000000 0.000000
vn 0.000000 -1.000000 0.000000
vn 0.000000 -1.000000 0.000000
vn -0.464334 0.000000 0.885660
vn 0.007917 0.000000 0.999969
vn 0.007917 0.000000 0.999969
vn -0.464334 0.000000 0.885660
vn -0.007917 0.000000 -0.999969
vn -0.478299 0.000000 -0.878197
vn -0.478299 0.000000 -0.878197
vn -0.007917 0.000000 -0.999969
vn -0.612952 0.764774 -0.198519
vn -0.624390 0.781097 0.004944
vn -0.624390 0.781097 0.004944
vn -0.612952 0.764774 -0.198519
vn -0.254695 0.779734 0.571967
vn 0.004672 0.807329 0.590083
vn 0.004672 0.807329 0.590083
vn -0.254695 0.779734 0.571967
vn 0.624390 0.781097 -0.004944
vn 0.609733 0.764774 -0.208200
vn 0.609733 0.764774 -0.208200
vn 0.624390 0.781097 -0.004944
vn -0.004672 0.807329 -0.590083
vn -0.263719 0.779734 -0.567862
vn -0.263719 0.779734 -0.567862
vn -0.004672 0.807329 -0.590083
vn -0.962824 0.013539 -0.269788
vn -0.999869 0.014092 0.007916
vn -0.999807 0.017972 0.007916
vn -0.962696 0.016940 -0.270056
vn -0.293475 0.008008 0.955933
vn 0.007917 0.008397 0.999933
vn 0.002658 0.003005 0.999992
vn -0.320422 0.004555 0.947264
vn 0.999869 0.014092 -0.007916
vn 0.958432 0.013539 -0.284999
vn 0.959138 0.025675 -0.281770
vn 0.999615 0.026604 -0.007914
vn -0.007917 0.008397 -0.999933
vn -0.308574 0.008008 -0.951167
vn -0.335380 0.004555 -0.942072
vn -0.013176 0.003005 -0.999909
vn 0.962824 0.013539 0.269788
vn 0.963480 0.025675 0.266548
vn 0.612952 0.764774 0.198519
vn 0.612952 0.764774 0.198519
vn 0.945932 0.000000 0.324366
vn 0.945932 0.000000 0.324366
vn 0.000000 -1.000000 0.000000
vn 0.000000 -1.000000 0.000000
vn -0.940677 0.000000 0.339302
vn -0.940677 0.000000 0.339302
vn -0.609733 0.764774 0.208199
vn -0.609733 0.764774 0.208199
vn -0.958432 0.013539 0.284999
vn -0.958299 0.016940 0.285265
vn 0.293475 0.008008 -0.955933
vn 0.316706 0.001851 -0.948522
vn 0.254695 0.779734 -0.571967
vn 0.254695 0.779734 -0.571967
vn 0.464334 0.000000 -0.885660
vn 0.464334 0.000000 -0.885660
vn 0.000000 -1.000000 0.000000
vn 0.000000 -1.000000 0.000000
vn 0.000000 -1.000000 0.000000
vn 0.478299 0.000000 0.878197
vn 0.478299 0.000000 0.878197
vn 0.263719 0.779734 0.567862
vn 0.263719 0.779734 0.567862
vn 0.308574 0.008008 0.951167
vn 0.331685 0.001851 0.943388
vn -0.023163 -0.056461 0.998136
vn 0.580571 -0.068582 0.811316
vn -0.552695 -0.026927 0.832948
vn -0.998015 0.062479 0.007902
vn -0.955651 0.059966 0.288332
vn -0.960097 0.059966 -0.273164
vn -0.565814 -0.026927 -0.824093
vn -0.038964 -0.056461 -0.997644
vn 0.567651 -0.068582 -0.820408
vn 0.956968 0.157528 -0.243717
vn 0.986741 0.162113 -0.007812
vn 0.960706 0.157528 0.228535
vn 0.828456 -0.552440 0.092032
vn 0.828456 -0.552440 0.092032
vn 0.828456 -0.552440 0.092032
vn 0.828456 -0.552440 0.092032
vn 0.512969 -0.533196 0.672729
vn 0.512969 -0.533196 0.672729
vn 0.512969 -0.533196 0.672729
vn 0.512969 -0.533196 0.672729
vn -0.487193 -0.559585 0.670453
vn -0.487193 -0.559585 0.670453
vn -0.487193 -0.559585 0.670453
vn -0.487193 -0.559585 0.670453
vn -0.860118 -0.493591 0.128705
vn -0.860118 -0.493591 0.128705
vn -0.860118 -0.493591 0.128705
vn -0.860118 -0.493591 0.128705
vn -0.862048 -0.493591 -0.115072
vn -0.862048 -0.493591 -0.115072
vn -0.862048 -0.493591 -0.115072
vn -0.862048 -0.493591 -0.115072
vn -0.497748 -0.559585 -0.662655
vn -0.497748 -0.559585 -0.662655
vn -0.497748 -0.559585 -0.662655
vn -0.497748 -0.559585 -0.662655
vn 0.502253 -0.533197 -0.680767
vn 0.502253 -0.533197 -0.680767
vn 0.502253 -0.533197 -0.680767
vn 0.502253 -0.533197 -0.680767
vn 0.826895 -0.552440 -0.105138
vn 0.826895 -0.552440 -0.105138
vn 0.826895 -0.552440 -0.105138
vn 0.826895 -0.552440 -0.105138
s 1
g pCube3
usemtl blinn1SG
f 76/1/1 89/2/2 83/3/3 3/4/4
s 2
f 3/4/5 83/3/6 84/142/7 46/6/8
s 3
f 5/7/9 85/8/10 86/9/11 66/10/12
s 4
f 81/11/13 82/12/14 41/13/15 36/15/16
s 5
f 71/17/17 72/16/18 39/69/19 50/72/20
s 6
f 2/18/21 56/19/22 57/151/23 10/21/24
s 3
f 65/22/25 6/23/26 11/24/27 64/25/28
s 2
f 45/159/29 4/27/30 12/28/31 44/160/32
s 1
f 4/27/33 77/30/34 78/31/35 12/28/36
s 7
f 55/129/37 1/33/38 14/34/39 54/152/40
s 1
f 76/1/1 3/4/4 15/36/41 75/37/42
s 2
f 3/4/5 46/6/8 47/158/43 15/36/44
s 3
f 5/7/9 66/10/12 67/39/45 16/40/46
s 6
f 10/21/24 57/151/23 58/150/47 18/42/48
s 3
f 64/25/28 11/24/27 19/43/49 63/44/50
s 2
f 44/160/32 12/28/31 20/45/51 43/161/52
s 1
f 12/28/36 78/31/35 79/47/53 20/45/54
s 7
f 54/152/40 14/34/39 22/48/55 53/153/56
s 1
f 75/37/42 15/36/41 23/50/57 74/51/58
s 2
f 15/36/44 47/158/43 48/157/59 23/50/60
s 3
f 16/40/46 67/39/45 68/53/61 24/54/62
s 6
f 18/42/48 58/150/47 59/149/63 26/56/64
s 3
f 63/44/50 19/43/49 27/57/65 62/58/66
s 2
f 43/161/52 20/45/51 28/59/67 42/162/68
s 1
f 20/45/54 79/47/53 80/61/69 28/59/70
s 7
f 53/153/56 22/48/55 30/62/71 52/154/72
s 1
f 74/51/58 23/50/57 31/64/73 73/65/74
s 2
f 23/50/60 48/157/59 49/156/75 31/64/76
s 3
f 24/54/62 68/53/61 69/67/77 32/68/78
s 8
f 26/56/79 59/149/80 60/148/81 34/70/82
s 9
f 62/58/83 27/57/84 35/71/85 61/75/86
s 10
f 42/162/87 28/59/88 36/14/89 41/170/90
s 11
f 28/59/91 80/61/92 81/163/93 36/14/94
s 12
f 52/154/95 30/62/96 38/174/97 51/172/98
s 13
f 73/65/99 31/64/100 39/69/101 72/16/102
s 14
f 31/64/103 49/156/104 50/155/105 39/69/106
s 15
f 32/68/107 69/67/108 70/166/109 40/171/110
s 10
f 27/57/111 42/60/87 41/145/90 35/71/112
s 2
f 19/43/113 43/46/52 42/60/68 27/57/114
f 11/24/115 44/29/32 43/46/52 19/43/113
f 6/23/116 45/26/29 44/29/32 11/24/115
f 46/143/8 84/5/7 85/8/117 5/7/118
f 47/38/43 46/143/8 5/7/118 16/40/119
f 48/52/59 47/38/43 16/40/119 24/54/120
f 49/66/75 48/52/59 24/54/120 32/68/121
s 14
f 50/173/105 49/66/104 32/68/122 40/171/123
s 5
f 70/73/124 71/17/17 50/72/20 40/74/125
s 12
f 29/76/126 52/63/95 51/147/98 37/167/127
s 7
f 21/78/128 53/49/56 52/63/72 29/76/129
f 13/79/130 54/35/40 53/49/56 21/78/128
f 7/80/131 55/32/37 54/35/40 13/79/130
s 6
f 57/20/23 56/131/22 8/81/132 9/82/133
f 58/41/47 57/20/23 9/82/133 17/83/134
f 59/55/63 58/41/47 17/83/134 25/84/135
s 8
f 60/169/81 59/55/80 25/84/136 33/85/137
s 4
f 41/13/15 82/12/14 61/75/138 35/71/139
s 9
f 25/84/140 62/58/83 61/75/86 33/85/141
s 3
f 17/83/142 63/44/50 62/58/66 25/84/143
f 9/82/144 64/25/28 63/44/50 17/83/142
f 8/81/145 65/22/25 64/25/28 9/82/144
f 66/10/12 86/9/11 87/86/146 7/80/147
f 67/39/45 66/10/12 7/80/147 13/79/148
f 68/53/61 67/39/45 13/79/148 21/78/149
f 69/67/77 68/53/61 21/78/149 29/76/150
s 15
f 70/166/109 69/67/108 29/76/151 37/167/152
s 5
f 37/77/153 51/144/154 71/17/17 70/73/124
f 51/144/154 38/146/155 72/16/18 71/17/17
s 13
f 30/62/156 73/65/99 72/16/102 38/174/157
s 1
f 22/48/158 74/51/58 73/65/74 30/62/159
f 14/34/160 75/37/42 74/51/58 22/48/158
f 1/33/161 76/1/1 75/37/42 14/34/160
f 1/33/161 88/87/162 89/2/2 76/1/1
f 78/31/35 77/30/34 2/18/163 10/21/164
f 79/47/53 78/31/35 10/21/164 18/42/165
f 80/61/69 79/47/53 18/42/165 26/56/166
s 11
f 81/163/93 80/61/92 26/56/167 34/70/168
s 4
f 34/164/169 60/165/170 82/12/14 81/11/13
f 61/75/138 82/12/14 60/165/170 33/168/171
s 2
f 83/3/6 4/27/30 45/159/29 84/142/7
f 85/8/117 84/5/7 45/26/29 6/23/116
s 3
f 86/9/11 85/8/10 6/23/26 65/22/25
f 87/86/146 86/9/11 65/22/25 8/81/145
s 1
f 89/2/2 88/87/162 2/18/163 77/30/34
f 83/3/3 89/2/2 77/30/34 4/27/33
s 16
usemtl blinn2SG
f 90/88/172 110/89/173 111/90/174 92/91/175
s 17
f 94/92/176 108/93/177 109/94/178 96/95/179
s 18
f 118/140/180 119/139/181 110/89/182 90/88/183
s 19
f 91/177/184 120/176/185 121/137/186 93/101/187
s 20
f 118/140/188 90/88/189 92/91/190 117/141/191
s 21
f 92/91/192 111/90/193 112/103/194 98/104/195
s 22
f 93/101/196 121/137/197 122/136/198 99/106/199
s 23
f 108/93/200 94/92/201 101/107/202 107/108/203
s 24
f 117/141/204 92/91/205 98/104/206 116/109/207
s 25
usemtl blinn1SG
f 98/104/208 112/103/209 126/110/210 127/111/211
s 26
f 99/106/212 122/136/213 124/112/214 125/113/215
s 27
f 107/108/216 101/107/217 129/114/218 130/115/219
s 28
f 116/109/220 98/104/221 127/111/222 128/133/223
s 27
f 100/117/224 107/108/216 130/115/219 123/118/225
s 23
usemtl blinn2SG
f 95/119/226 108/93/200 107/108/203 100/117/227
s 17
f 109/94/178 108/93/177 95/119/228 97/120/229
s 18
f 110/178/182 119/175/181 120/138/230 91/98/231
s 16
f 111/90/174 110/89/173 91/177/232 93/101/233
s 21
f 112/103/194 111/90/193 93/101/234 99/106/235
s 25
usemtl blinn1SG
f 126/110/210 112/103/209 99/106/236 125/113/237
s 28
f 101/107/238 116/134/220 128/116/223 129/114/239
s 24
usemtl blinn2SG
f 94/92/240 117/102/204 116/134/207 101/107/241
s 20
f 96/95/242 118/96/188 117/102/191 94/92/243
s 18
f 96/95/244 109/94/245 119/97/181 118/96/180
f 120/99/230 119/97/181 109/94/245 97/120/246
s 19
f 121/100/186 120/99/185 97/120/247 95/119/248
s 22
f 122/105/198 121/100/197 95/119/249 100/117/250
s 26
usemtl blinn1SG
f 124/135/214 122/105/213 100/117/251 123/118/252
f 114/121/253 124/135/214 123/118/252 104/122/254
f 125/113/215 124/112/214 114/132/253 103/123/255
s 25
f 113/124/256 126/110/210 125/113/237 103/123/257
f 127/111/211 126/110/210 113/124/256 102/125/258
s 28
f 128/133/223 127/111/222 102/125/259 115/126/260
f 129/114/239 128/116/223 115/130/260 105/127/261
s 27
f 130/115/219 129/114/218 105/127/262 106/128/263
f 123/118/225 130/115/219 106/128/263 104/122/264
s off
f 87/86/265 8/81/266 104/122/267 106/128/268
f 8/81/269 56/131/270 114/121/271 104/122/272
f 56/19/273 2/18/274 103/123/275 114/132/276
f 2/18/277 88/87/278 113/124/279 103/123/280
f 88/87/281 1/33/282 102/125/283 113/124/284
f 1/33/285 55/129/286 115/126/287 102/125/288
f 55/32/289 7/80/290 105/127/291 115/130/292
f 7/80/293 87/86/294 106/128/295 105/127/296
