# This file uses centimeters as units for non-parametric coordinates.

mtllib lamp.mtl
g default
v 0.951057 3.468385 -0.309017
v 0.809018 3.468385 -0.587786
v 0.587786 3.468385 -0.809017
v 0.309017 3.468385 -0.951057
v 0.000000 3.468385 -1.000000
v -0.309017 3.468385 -0.951057
v -0.587785 3.468385 -0.809017
v -0.809017 3.468385 -0.587785
v -0.951057 3.468385 -0.309017
v -1.000000 3.468385 0.000000
v -0.951057 3.468385 0.309017
v -0.809017 3.468385 0.587785
v -0.587785 3.468385 0.809017
v -0.309017 3.468385 0.951057
v -0.000000 3.468385 1.000000
v 0.309017 3.468385 0.951057
v 0.587785 3.468385 0.809017
v 0.809017 3.468385 0.587785
v 0.951057 3.468385 0.309017
v 1.000000 3.468385 0.000000
v 0.622716 5.468385 -0.168900
v 0.572919 5.468385 -0.321266
v 0.495359 5.468385 -0.442185
v 0.397627 5.468385 -0.519820
v 0.000000 5.468385 -0.546571
v -0.397627 5.468385 -0.519820
v -0.495359 5.468385 -0.442185
v -0.572919 5.468385 -0.321266
v -0.622716 5.468385 -0.168900
v -0.639875 5.468385 -0.000000
v -0.622716 5.468385 0.168900
v -0.572919 5.468385 0.321266
v -0.495358 5.468385 0.442185
v -0.397627 5.468385 0.519820
v -0.000000 5.468385 0.546571
v 0.397627 5.468385 0.519820
v 0.495358 5.468385 0.442185
v 0.572919 5.468385 0.321266
v 0.622716 5.468385 0.168900
v 0.639875 5.468385 -0.000000
v 0.000000 5.468385 0.000000
vt 0.457632 0.141858
vt 0.487078 0.141811
vt 0.455372 0.360427
vt 0.435752 0.360278
vt 0.517359 0.141982
vt 0.472698 0.360481
vt 0.487490 0.360543
vt 0.002100 0.139239
vt 0.049387 0.359342
vt 0.035064 0.139884
vt 0.094160 0.358524
vt 0.066442 0.139714
vt 0.108949 0.358602
vt 0.096728 0.139835
vt 0.126272 0.358713
vt 0.126181 0.140168
vt 0.145888 0.358748
vt 0.154998 0.140677
vt 0.166913 0.358617
vt 0.183310 0.140734
vt 0.188156 0.358793
vt 0.211193 0.140990
vt 0.208399 0.358792
vt 0.238738 0.141499
vt 0.226671 0.358702
vt 0.265207 0.142678
vt 0.241554 0.363684
vt 0.291921 0.142366
vt 0.290707 0.363549
vt 0.318628 0.142967
vt 0.339836 0.363910
vt 0.345141 0.142078
vt 0.354939 0.359473
vt 0.372662 0.141845
vt 0.373220 0.359734
vt 0.400526 0.141865
vt 0.393471 0.359924
vt 0.428822 0.142086
vt 0.414723 0.359948
vt 0.290757 0.420937
vt 0.362228 0.420385
vt 0.361134 0.402076
vt 0.356709 0.385539
vt 0.349376 0.372395
vt 0.231982 0.372259
vt 0.224705 0.385561
vt 0.220361 0.402229
vt 0.219367 0.420627
vt 0.221866 0.438963
vt 0.227705 0.455463
vt 0.236417 0.468534
vt 0.247234 0.476916
vt 0.290971 0.479770
vt 0.334702 0.476703
vt 0.345467 0.468274
vt 0.354097 0.455175
vt 0.359836 0.438678
vt 0.548731 0.142453
vt 0.581698 0.142124
vt 0.532255 0.361789
vn 0.947321 0.171899 -0.270249
vn 0.830505 0.167614 -0.531194
vn 0.835810 0.167745 -0.522765
vn 0.948496 0.171974 -0.266046
vn 0.624817 0.169272 -0.762201
vn 0.638267 0.168901 -0.751058
vn 0.244906 0.201850 -0.948303
vn 0.271052 0.199349 -0.941696
vn -0.000000 0.213738 -0.976891
vn -0.000000 0.213738 -0.976891
vn -0.244906 0.201850 -0.948302
vn -0.271052 0.199349 -0.941696
vn -0.624817 0.169272 -0.762201
vn -0.638267 0.168900 -0.751058
vn -0.830505 0.167614 -0.531194
vn -0.835810 0.167745 -0.522765
vn -0.947320 0.171899 -0.270249
vn -0.948496 0.171974 -0.266047
vn -0.984701 0.174254 0.000000
vn -0.984701 0.174254 0.000000
vn -0.947320 0.171899 0.270249
vn -0.948496 0.171973 0.266047
vn -0.830505 0.167614 0.531194
vn -0.835810 0.167745 0.522765
vn -0.624817 0.169272 0.762201
vn -0.638267 0.168900 0.751058
vn -0.244906 0.201850 0.948303
vn -0.271052 0.199349 0.941696
vn 0.000000 0.213738 0.976891
vn 0.000000 0.213738 0.976891
vn 0.244906 0.201850 0.948303
vn 0.271052 0.199349 0.941696
vn 0.624817 0.169272 0.762201
vn 0.638267 0.168900 0.751058
vn 0.830505 0.167614 0.531194
vn 0.835810 0.167745 0.522765
vn 0.947320 0.171899 0.270250
vn 0.948496 0.171973 0.266047
vn 0.984701 0.174254 0.000001
vn 0.984701 0.174254 0.000001
vn 0.000000 1.000000 0.000000
vn 0.000000 1.000000 0.000000
vn 0.000000 1.000000 0.000000
vn 0.000000 1.000000 0.000000
vn 0.000000 1.000000 0.000000
vn 0.000000 1.000000 0.000000
vn 0.000000 1.000000 0.000000
vn 0.000000 1.000000 0.000000
vn 0.000000 1.000000 0.000000
vn 0.000000 1.000000 0.000000
vn 0.000000 1.000000 0.000000
vn 0.000000 1.000000 0.000000
vn 0.000000 1.000000 0.000000
vn 0.000000 1.000000 0.000000
vn 0.000000 1.000000 0.000000
vn 0.000000 1.000000 0.000000
vn 0.000000 1.000000 0.000000
vn 0.000000 1.000000 0.000000
vn 0.000000 1.000000 0.000000
vn 0.000000 1.000000 0.000000
vn 0.000000 1.000000 0.000000
s 1
g pCylinder1
usemtl initialShadingGroup
f 1/1/1 2/2/2 22/3/3 21/4/4
f 2/2/2 3/5/5 23/6/6 22/3/3
f 3/5/5 4/58/7 24/7/8 23/6/6
f 4/58/7 5/59/9 25/60/10 24/7/8
f 5/8/9 6/10/11 26/11/12 25/9/10
f 6/10/11 7/12/13 27/13/14 26/11/12
f 7/12/13 8/14/15 28/15/16 27/13/14
f 8/14/15 9/16/17 29/17/18 28/15/16
f 9/16/17 10/18/19 30/19/20 29/17/18
f 10/18/19 11/20/21 31/21/22 30/19/20
f 11/20/21 12/22/23 32/23/24 31/21/22
f 12/22/23 13/24/25 33/25/26 32/23/24
f 13/24/25 14/26/27 34/27/28 33/25/26
f 14/26/27 15/28/29 35/29/30 34/27/28
f 15/28/29 16/30/31 36/31/32 35/29/30
f 16/30/31 17/32/33 37/33/34 36/31/32
f 17/32/33 18/34/35 38/35/36 37/33/34
f 18/34/35 19/36/37 39/37/38 38/35/36
f 19/36/37 20/38/39 40/39/40 39/37/38
f 20/38/39 1/1/1 21/4/4 40/39/40
s 2
f 21/57/41 22/56/42 41/40/43
f 22/56/42 23/55/44 41/40/43
f 23/55/44 24/54/45 41/40/43
f 24/54/45 25/53/46 41/40/43
f 25/53/46 26/52/47 41/40/43
f 26/52/47 27/51/48 41/40/43
f 27/51/48 28/50/49 41/40/43
f 28/50/49 29/49/50 41/40/43
f 29/49/50 30/48/51 41/40/43
f 30/48/51 31/47/52 41/40/43
f 31/47/52 32/46/53 41/40/43
f 32/46/53 33/45/54 41/40/43
f 33/45/54 34/27/55 41/40/43
f 34/27/55 35/29/56 41/40/43
f 35/29/56 36/31/57 41/40/43
f 36/31/57 37/44/58 41/40/43
f 37/44/58 38/43/59 41/40/43
f 38/43/59 39/42/60 41/40/43
f 39/42/60 40/41/61 41/40/43
f 40/41/61 21/57/41 41/40/43
g default
v -0.837972 0.000000 0.467224
v 0.837972 0.000000 0.467224
v -0.603826 1.675943 0.291090
v 0.603826 1.675943 0.291090
v -0.603826 1.675943 -0.291090
v 0.603826 1.675943 -0.291090
v -0.837972 0.000000 -0.467224
v 0.837972 0.000000 -0.467224
v -0.632147 1.675943 0.000000
v -0.910997 0.000000 0.000000
v 0.910997 0.000000 0.000000
v 0.632147 1.675943 0.000000
v 0.000000 1.675943 0.613066
v 0.000000 1.675943 -0.613066
v 0.000000 0.000000 -0.984022
v 0.000000 0.000000 0.000000
v 0.000000 0.000000 0.984022
v -0.603826 1.675943 0.261037
v -0.837972 0.000000 0.418986
v 0.000000 0.000000 0.418986
v 0.837972 0.000000 0.418986
v 0.603826 1.675943 0.261037
v 0.000000 1.675943 0.418986
v -0.603826 1.675943 -0.261037
v -0.837972 0.000000 -0.418986
v 0.000000 0.000000 -0.418986
v 0.837972 0.000000 -0.418986
v 0.603826 1.675943 -0.261037
v 0.000000 1.675943 -0.418986
v -0.441338 1.675943 -0.522074
v -0.418986 0.000000 -0.837972
v -0.418986 0.000000 -0.418986
v -0.418986 0.000000 0.000000
v -0.418986 0.000000 0.418986
v -0.418986 0.000000 0.837972
v -0.441338 1.675943 0.522074
v -0.418986 1.675943 0.418986
v -0.418986 1.675943 0.000000
v -0.418986 1.675943 -0.418986
v 0.441338 1.675943 -0.522074
v 0.418986 0.000000 -0.837972
v 0.418986 0.000000 -0.418986
v 0.418986 0.000000 0.000000
v 0.418986 0.000000 0.418986
v 0.418986 0.000000 0.837972
v 0.441338 1.675943 0.522074
v 0.418986 1.675943 0.418986
v 0.418986 1.675943 0.000000
v 0.418986 1.675943 -0.418986
v 0.000000 1.894397 0.000000
v 0.000000 1.894397 -0.254566
v 0.336776 1.894397 0.000000
v 0.336776 1.894397 -0.254566
v 0.336776 1.894397 0.254567
v 0.000000 1.894397 0.254567
v -0.336776 1.894397 0.254567
v -0.336776 1.894397 0.000000
v -0.336776 1.894397 -0.254566
vt 0.119753 0.917778
vt 0.148921 0.907649
vt 0.148424 0.918072
vt 0.116829 0.919598
vt 0.067223 0.720668
vt 0.106151 0.682002
vt 0.125471 0.716536
vt 0.071859 0.720777
vt 0.546254 0.711892
vt 0.591427 0.710198
vt 0.091075 0.933195
vt 0.504029 0.912408
vt 0.506441 0.673465
vt 0.077292 0.645793
vt 0.310125 0.896153
vt 0.305837 0.672428
vt 0.349129 0.685698
vt 0.338645 0.890521
vt 0.119605 0.957134
vt 0.472522 0.911760
vt 0.197715 0.897370
vt 0.247163 0.891033
vt 0.251054 0.900714
vt 0.201052 0.917129
vt 0.416051 0.941610
vt 0.412244 0.969822
vt 0.261708 0.954531
vt 0.374264 0.930145
vt 0.446638 0.707051
vt 0.422442 0.892926
vt 0.372783 0.888410
vt 0.406037 0.698981
vt 0.150569 0.617939
vt 0.453523 0.652697
vt 0.397716 0.660269
vt 0.228940 0.620126
vt 0.166512 0.712274
vt 0.157237 0.657378
vt 0.213584 0.663818
vt 0.206677 0.702792
vt 0.281373 0.891770
vt 0.263079 0.687516
vt 0.205842 0.945471
vt 0.247273 0.932905
vt 0.541631 0.712086
vt 0.501054 0.910665
vt 0.471587 0.901432
vt 0.488020 0.709505
vt 0.419820 0.912845
vt 0.369261 0.898210
vt 0.466385 0.967552
vt 0.162578 0.947230
vt 0.459391 0.940904
vt 0.353522 0.687188
vt 0.341967 0.889632
vt 0.258733 0.689145
vt 0.278017 0.891012
vt 0.330452 0.927278
vt 0.210846 0.975056
vt 0.156056 0.972401
vt 0.502491 0.950410
vt 0.360880 0.952319
vt 0.291093 0.928130
vt 0.381253 0.616630
vt 0.530259 0.925054
vt 0.532707 0.639221
vt 0.460194 0.610320
vt 0.021942 0.720487
vn 0.000000 1.000000 0.000000
vn 0.000000 1.000000 0.000000
vn 0.000000 1.000000 0.000000
vn 0.000000 1.000000 0.000000
vn 0.000000 -1.000000 0.000000
vn 0.000000 -1.000000 0.000000
vn 0.000000 -1.000000 0.000000
vn 0.000000 -1.000000 0.000000
vn -0.751609 0.148454 0.642686
vn -0.889221 0.158077 0.429300
vn -0.876144 0.157482 0.455601
vn -0.751609 0.148454 0.642686
vn -0.510846 0.179452 0.840734
vn -0.544592 0.176460 0.819928
vn -0.876144 0.157482 -0.455601
vn -0.987430 0.158057 0.000000
vn -0.987430 0.158057 0.000000
vn -0.889221 0.158077 -0.429300
vn 0.000000 -1.000000 0.000000
vn 0.000000 -1.000000 0.000000
vn 0.000000 -1.000000 0.000000
vn 0.000000 -1.000000 0.000000
vn 0.987430 0.158057 0.000000
vn 0.987430 0.158057 0.000000
vn 0.876144 0.157482 -0.455601
vn 0.889221 0.158077 -0.429300
vn 0.000000 1.000000 0.000000
vn 0.000000 1.000000 0.000000
vn 0.000000 1.000000 0.000000
vn 0.000000 1.000000 0.000000
vn 0.000000 1.000000 0.000000
vn 0.000000 1.000000 0.000000
vn 0.000000 1.000000 0.000000
vn 0.000000 1.000000 0.000000
vn 0.000000 1.000000 0.000000
vn 0.000000 1.000000 -0.000000
vn 0.000000 1.000000 -0.000000
vn 0.000000 1.000000 0.000000
vn 0.000000 0.199016 -0.979996
vn 0.000000 0.199016 -0.979996
vn 0.544592 0.176460 -0.819928
vn 0.510846 0.179452 -0.840734
vn 0.000000 -1.000000 0.000000
vn 0.000000 -1.000000 0.000000
vn 0.000000 -1.000000 0.000000
vn 0.000000 -1.000000 0.000000
vn 0.000000 -1.000000 0.000000
vn 0.000000 -1.000000 0.000000
vn 0.000000 -1.000000 0.000000
vn 0.000000 -1.000000 0.000000
vn 0.000000 0.199016 0.979996
vn 0.000000 0.199016 0.979996
vn 0.510846 0.179452 0.840734
vn 0.544592 0.176460 0.819928
vn 0.889221 0.158077 0.429300
vn 0.876144 0.157482 0.455601
vn 0.000000 1.000000 -0.000000
vn 0.000000 1.000000 -0.000000
vn -0.751609 0.148455 -0.642686
vn -0.751609 0.148455 -0.642686
vn -0.544592 0.176460 -0.819928
vn -0.510846 0.179452 -0.840734
vn 0.000000 -1.000000 0.000000
vn 0.000000 -1.000000 0.000000
vn 0.000000 -1.000000 0.000000
vn 0.000000 -1.000000 0.000000
vn 0.000000 1.000000 0.000000
vn 0.000000 1.000000 0.000000
vn 0.000000 1.000000 0.000000
vn 0.000000 1.000000 0.000000
vn 0.000000 1.000000 0.000000
vn 0.000000 1.000000 0.000000
vn 0.000000 1.000000 0.000000
vn 0.000000 1.000000 0.000000
vn 0.000000 1.000000 0.000000
vn 0.751609 0.148454 -0.642686
vn 0.751609 0.148454 -0.642686
vn 0.000000 -1.000000 0.000000
vn 0.000000 -1.000000 0.000000
vn 0.000000 -1.000000 0.000000
vn 0.000000 -1.000000 0.000000
vn 0.000000 -1.000000 0.000000
vn 0.751609 0.148454 0.642686
vn 0.751609 0.148454 0.642686
vn 0.000000 1.000000 0.000000
vn 0.000000 1.000000 0.000000
vn 0.000000 1.000000 0.000000
vn 0.000000 1.000000 0.000000
vn 0.000000 1.000000 0.000000
vn 0.000000 1.000000 0.000000
vn 0.935921 0.352210 0.000000
vn 0.935921 0.352210 0.000000
vn 0.935921 0.352210 0.000000
vn 0.935921 0.352210 0.000000
vn 0.000000 0.601354 -0.798983
vn 0.000000 0.601354 -0.798983
vn 0.000000 0.601354 -0.798983
vn 0.000000 0.601354 -0.798983
vn 0.000000 0.601354 0.798983
vn 0.000000 0.601354 0.798983
vn 0.000000 0.601354 0.798983
vn 0.000000 0.601354 0.798983
vn 0.935921 0.352210 0.000000
vn 0.935921 0.352210 0.000000
vn -0.935921 0.352210 0.000000
vn -0.935921 0.352210 0.000000
vn -0.935921 0.352210 0.000000
vn -0.935921 0.352210 0.000000
vn 0.000000 0.601354 0.798983
vn 0.000000 0.601354 0.798983
vn -0.935921 0.352210 0.000000
vn -0.935921 0.352210 0.000000
vn 0.000000 0.601354 -0.798983
vn 0.000000 0.601354 -0.798983
s 1
g pCube1
usemtl initialShadingGroup
f 44/61/62 77/62/63 78/63/64 59/64/65
s 2
f 60/65/66 75/66/67 76/67/68 42/68/69
s 3
f 44/61/70 59/64/71 60/65/72 42/68/73 76/67/74 77/62/75
f 66/69/76 51/70/77 50/125/78 65/72/79
s 2
f 66/69/80 73/73/81 74/126/82 51/70/83
s 3
f 53/75/84 52/76/85 68/77/86 69/78/87
s 1
f 50/125/88 79/121/89 80/80/90 65/72/91
f 54/81/92 87/82/93 88/83/94 64/84/95
s 7
f 92/85/96 91/86/97 93/122/98 94/88/99
s 3
f 56/89/100 55/90/101 81/91/102 82/92/103
s 2
f 57/127/104 67/94/105 83/95/106 84/124/107
f 58/97/108 61/98/109 85/99/110 86/100/111
s 3
f 54/81/112 58/97/113 86/100/114 87/82/115
f 51/128/77 60/65/72 59/64/71 50/71/78
s 2
f 51/128/83 74/74/82 75/66/67 60/65/66
f 85/99/110 61/98/109 57/93/104 84/96/107
s 3
f 63/101/116 62/102/117 52/76/85 53/75/84
s 7
f 96/103/118 95/104/119 93/87/98 91/119/97
s 1
f 59/64/65 78/63/64 79/79/89 50/71/88
s 3
f 48/105/120 66/69/76 65/72/79 46/106/121 71/107/122 72/108/123
s 2
f 48/105/124 72/108/125 73/73/81 66/69/80
f 83/95/106 67/94/105 56/89/126 82/92/127
s 1
f 55/90/128 70/109/129 90/110/130 81/91/131
f 65/72/91 80/80/90 71/107/132 46/106/133
s 3
f 71/107/122 55/90/101 56/89/100 72/108/123
s 2
f 73/73/81 72/108/125 56/89/126 67/94/105
f 74/126/82 73/73/81 67/94/105 57/127/104
f 75/66/67 74/74/82 57/93/104 61/98/109
f 76/67/68 75/66/67 61/98/109 58/97/108
s 3
f 77/62/75 76/67/74 58/97/113 54/81/112
s 1
f 78/63/64 77/62/63 54/81/92 64/84/95
s 7
f 98/120/134 97/112/135 96/103/118 91/119/97
f 99/113/136 98/111/134 91/86/97 92/85/96
s 1
f 71/107/132 80/80/90 70/109/129 55/90/128
s 3
f 49/114/137 82/92/103 81/91/102 47/115/138 69/78/87 68/77/86
s 2
f 68/77/139 83/95/106 82/92/127 49/114/140
f 84/124/107 83/95/106 68/77/139 52/76/141
f 62/102/142 85/99/110 84/96/107 52/76/141
f 86/100/111 85/99/110 62/102/142 43/116/143
s 3
f 45/117/144 87/82/115 86/100/114 43/116/145 62/102/117 63/101/116
s 1
f 88/83/94 87/82/93 45/117/146 63/101/147
f 89/123/148 88/83/94 63/101/147 53/75/149
f 90/110/130 89/118/148 53/75/149 69/78/150
f 81/91/131 90/110/130 69/78/150 47/115/151
s 10
f 89/118/152 90/110/153 94/88/154 93/122/155
s 11
f 90/110/156 70/109/157 92/85/158 94/88/159
s 12
f 64/84/160 88/83/161 95/104/162 96/103/163
s 10
f 88/83/164 89/123/152 93/87/155 95/104/165
s 13
f 79/79/166 78/63/167 97/112/168 98/120/169
s 12
f 78/63/170 64/84/160 96/103/163 97/112/171
s 13
f 80/80/172 79/121/166 98/111/169 99/113/173
s 11
f 70/109/157 80/80/174 99/113/175 92/85/158
g default
v 0.075046 1.896060 -0.024384
v 0.063838 1.896060 -0.046381
v 0.046381 1.896060 -0.063838
v 0.024384 1.896060 -0.075046
v 0.000000 1.896060 -0.078908
v -0.024384 1.896060 -0.075046
v -0.046381 1.896060 -0.063838
v -0.063838 1.896060 -0.046381
v -0.075046 1.896060 -0.024384
v -0.078908 1.896060 0.000000
v -0.075046 1.896060 0.024384
v -0.063838 1.896060 0.046381
v -0.046381 1.896060 0.063838
v -0.024384 1.896060 0.075046
v -0.000000 1.896060 0.078908
v 0.024384 1.896060 0.075046
v 0.046381 1.896060 0.063838
v 0.063838 1.896060 0.046381
v 0.075046 1.896060 0.024384
v 0.078908 1.896060 0.000000
v 0.075046 3.896060 -0.024384
v 0.063838 3.896060 -0.046381
v 0.046381 3.896060 -0.063838
v 0.024384 3.896060 -0.075046
v 0.000000 3.896060 -0.078908
v -0.024384 3.896060 -0.075046
v -0.046381 3.896060 -0.063838
v -0.063838 3.896060 -0.046381
v -0.075046 3.896060 -0.024384
v -0.078908 3.896060 0.000000
v -0.075046 3.896060 0.024384
v -0.063838 3.896060 0.046381
v -0.046381 3.896060 0.063838
v -0.024384 3.896060 0.075046
v -0.000000 3.896060 0.078908
v 0.024384 3.896060 0.075046
v 0.046381 3.896060 0.063838
v 0.063838 3.896060 0.046381
v 0.075046 3.896060 0.024384
v 0.078908 3.896060 0.000000
v 0.000000 1.896060 0.000000
v 0.000000 3.896060 0.000000
vt 0.719829 0.216043
vt 0.712566 0.201788
vt 0.701254 0.190476
vt 0.686999 0.183213
vt 0.671197 0.180710
vt 0.655395 0.183213
vt 0.641141 0.190476
vt 0.629828 0.201788
vt 0.622565 0.216043
vt 0.620062 0.231845
vt 0.622565 0.247647
vt 0.629828 0.261901
vt 0.641141 0.273214
vt 0.655396 0.280477
vt 0.671197 0.282980
vt 0.686999 0.280477
vt 0.701254 0.273214
vt 0.712566 0.261901
vt 0.719829 0.247647
vt 0.722332 0.231845
vt 0.692357 0.306204
vt 0.696793 0.306068
vt 0.707766 0.665416
vt 0.703330 0.665551
vt 0.701228 0.305933
vt 0.712201 0.665280
vt 0.716637 0.665145
vt 0.621385 0.308371
vt 0.632358 0.667718
vt 0.625821 0.308235
vt 0.636793 0.667583
vt 0.630256 0.308100
vt 0.641229 0.667447
vt 0.634692 0.307964
vt 0.645665 0.667312
vt 0.639128 0.307829
vt 0.650100 0.667177
vt 0.643563 0.307693
vt 0.654536 0.667041
vt 0.647999 0.307558
vt 0.658972 0.666906
vt 0.652435 0.307423
vt 0.663408 0.666770
vt 0.656871 0.307287
vt 0.667844 0.666635
vt 0.661307 0.307152
vt 0.672279 0.666499
vt 0.665742 0.307016
vt 0.676715 0.666364
vt 0.670178 0.306881
vt 0.681151 0.666228
vt 0.674614 0.306745
vt 0.685587 0.666093
vt 0.679049 0.306610
vt 0.690022 0.665958
vt 0.683485 0.306474
vt 0.694458 0.665822
vt 0.687921 0.306339
vt 0.698894 0.665687
vt 0.671197 0.736627
vt 0.671197 0.231845
vt 0.719829 0.720825
vt 0.712566 0.706570
vt 0.701254 0.695257
vt 0.686999 0.687994
vt 0.671197 0.685491
vt 0.655395 0.687994
vt 0.641141 0.695257
vt 0.629828 0.706570
vt 0.622565 0.720825
vt 0.620062 0.736627
vt 0.622565 0.752428
vt 0.629828 0.766683
vt 0.641141 0.777996
vt 0.655395 0.785259
vt 0.671197 0.787762
vt 0.686999 0.785259
vt 0.701254 0.777996
vt 0.712566 0.766683
vt 0.719830 0.752428
vt 0.722332 0.736627
vt 0.705664 0.305797
vt 0.710100 0.305662
vt 0.721073 0.665009
vn 0.951057 0.000000 -0.309016
vn 0.809017 0.000000 -0.587785
vn 0.809017 0.000000 -0.587785
vn 0.951057 0.000000 -0.309016
vn 0.587785 0.000000 -0.809017
vn 0.587785 0.000000 -0.809017
vn 0.309017 0.000000 -0.951057
vn 0.309017 0.000000 -0.951057
vn -0.000000 0.000000 -1.000000
vn -0.000000 0.000000 -1.000000
vn -0.309017 0.000000 -0.951056
vn -0.309017 0.000000 -0.951056
vn -0.587785 0.000000 -0.809017
vn -0.587785 0.000000 -0.809017
vn -0.809017 0.000000 -0.587785
vn -0.809017 0.000000 -0.587785
vn -0.951057 0.000000 -0.309017
vn -0.951057 0.000000 -0.309017
vn -1.000000 0.000000 0.000000
vn -1.000000 0.000000 0.000000
vn -0.951056 0.000000 0.309017
vn -0.951056 0.000000 0.309017
vn -0.809017 0.000000 0.587785
vn -0.809017 0.000000 0.587785
vn -0.587785 0.000000 0.809017
vn -0.587785 0.000000 0.809017
vn -0.309017 0.000000 0.951056
vn -0.309017 0.000000 0.951056
vn 0.000000 0.000000 1.000000
vn 0.000000 0.000000 1.000000
vn 0.309017 0.000000 0.951056
vn 0.309017 0.000000 0.951056
vn 0.587785 0.000000 0.809017
vn 0.587785 0.000000 0.809017
vn 0.809017 0.000000 0.587785
vn 0.809017 0.000000 0.587785
vn 0.951057 0.000000 0.309017
vn 0.951057 0.000000 0.309017
vn 1.000000 0.000000 0.000001
vn 1.000000 0.000000 0.000001
vn 0.000000 -1.000000 0.000000
vn 0.000000 -1.000000 0.000000
vn 0.000000 -1.000000 0.000000
vn 0.000000 -1.000000 0.000000
vn 0.000000 -1.000000 0.000000
vn 0.000000 -1.000000 0.000000
vn 0.000000 -1.000000 0.000000
vn 0.000000 -1.000000 0.000000
vn 0.000000 -1.000000 0.000000
vn 0.000000 -1.000000 0.000000
vn 0.000000 -1.000000 0.000000
vn 0.000000 -1.000000 0.000000
vn 0.000000 -1.000000 0.000000
vn 0.000000 -1.000000 0.000000
vn 0.000000 -1.000000 0.000000
vn 0.000000 -1.000000 0.000000
vn 0.000000 -1.000000 0.000000
vn 0.000000 -1.000000 0.000000
vn 0.000000 -1.000000 0.000000
vn 0.000000 -1.000000 0.000000
vn 0.000000 -1.000000 0.000000
vn 0.000000 1.000000 0.000000
vn 0.000000 1.000000 0.000000
vn 0.000000 1.000000 0.000000
vn 0.000000 1.000000 0.000000
vn 0.000000 1.000000 0.000000
vn 0.000000 1.000000 0.000000
vn 0.000000 1.000000 0.000000
vn 0.000000 1.000000 0.000000
vn 0.000000 1.000000 0.000000
vn 0.000000 1.000000 0.000000
vn 0.000000 1.000000 0.000000
vn 0.000000 1.000000 0.000000
vn 0.000000 1.000000 0.000000
vn 0.000000 1.000000 0.000000
vn 0.000000 1.000000 0.000000
vn 0.000000 1.000000 0.000000
vn 0.000000 1.000000 0.000000
vn 0.000000 1.000000 0.000000
vn 0.000000 1.000000 0.000000
vn 0.000000 1.000000 0.000000
vn 0.000000 1.000000 0.000000
s 1
g pCylinder2
usemtl initialShadingGroup
f 100/149/176 101/150/177 121/151/178 120/152/179
f 101/150/177 102/153/180 122/154/181 121/151/178
f 102/153/180 103/210/182 123/155/183 122/154/181
f 103/210/182 104/211/184 124/212/185 123/155/183
f 104/156/184 105/158/186 125/159/187 124/157/185
f 105/158/186 106/160/188 126/161/189 125/159/187
f 106/160/188 107/162/190 127/163/191 126/161/189
f 107/162/190 108/164/192 128/165/193 127/163/191
f 108/164/192 109/166/194 129/167/195 128/165/193
f 109/166/194 110/168/196 130/169/197 129/167/195
f 110/168/196 111/170/198 131/171/199 130/169/197
f 111/170/198 112/172/200 132/173/201 131/171/199
f 112/172/200 113/174/202 133/175/203 132/173/201
f 113/174/202 114/176/204 134/177/205 133/175/203
f 114/176/204 115/178/206 135/179/207 134/177/205
f 115/178/206 116/180/208 136/181/209 135/179/207
f 116/180/208 117/182/210 137/183/211 136/181/209
f 117/182/210 118/184/212 138/185/213 137/183/211
f 118/184/212 119/186/214 139/187/215 138/185/213
f 119/186/214 100/149/176 120/152/179 139/187/215
s 2
f 101/130/216 100/129/217 140/189/218
f 102/131/219 101/130/216 140/189/218
f 103/132/220 102/131/219 140/189/218
f 104/133/221 103/132/220 140/189/218
f 105/134/222 104/133/221 140/189/218
f 106/135/223 105/134/222 140/189/218
f 107/136/224 106/135/223 140/189/218
f 108/137/225 107/136/224 140/189/218
f 109/138/226 108/137/225 140/189/218
f 110/139/227 109/138/226 140/189/218
f 111/140/228 110/139/227 140/189/218
f 112/141/229 111/140/228 140/189/218
f 113/142/230 112/141/229 140/189/218
f 114/143/231 113/142/230 140/189/218
f 115/144/232 114/143/231 140/189/218
f 116/145/233 115/144/232 140/189/218
f 117/146/234 116/145/233 140/189/218
f 118/147/235 117/146/234 140/189/218
f 119/148/236 118/147/235 140/189/218
f 100/129/217 119/148/236 140/189/218
s 3
f 120/208/237 121/207/238 141/188/239
f 121/207/238 122/206/240 141/188/239
f 122/206/240 123/205/241 141/188/239
f 123/205/241 124/204/242 141/188/239
f 124/204/242 125/203/243 141/188/239
f 125/203/243 126/202/244 141/188/239
f 126/202/244 127/201/245 141/188/239
f 127/201/245 128/200/246 141/188/239
f 128/200/246 129/199/247 141/188/239
f 129/199/247 130/198/248 141/188/239
f 130/198/248 131/197/249 141/188/239
f 131/197/249 132/196/250 141/188/239
f 132/196/250 133/195/251 141/188/239
f 133/195/251 134/194/252 141/188/239
f 134/194/252 135/193/253 141/188/239
f 135/193/253 136/192/254 141/188/239
f 136/192/254 137/191/255 141/188/239
f 137/191/255 138/190/256 141/188/239
f 138/190/256 139/209/257 141/188/239
f 139/209/257 120/208/237 141/188/239
