# This file uses centimeters as units for non-parametric coordinates.

mtllib table.mtl
g default
v -2.058292 0.000000 -0.941708
v -1.941708 0.000000 -0.941708
v -2.091951 1.776384 -0.908049
v -1.908049 1.776384 -0.908049
v -2.091951 1.776384 -1.091951
v -1.908049 1.776384 -1.091951
v -2.058292 0.000000 -1.058292
v -1.941708 0.000000 -1.058292
v -1.936467 0.276582 -1.063533
v -2.063533 0.276582 -1.063533
v -2.063533 0.276582 -0.936467
v -1.936467 0.276582 -0.936467
v -1.908105 1.440714 -1.091895
v -2.091895 1.440714 -1.091895
v -2.091895 1.440714 -0.908105
v -1.908105 1.440714 -0.908105
v -1.944032 0.510329 -1.055968
v -2.055968 0.510329 -1.055968
v -2.055968 0.510329 -0.944032
v -1.944032 0.510329 -0.944032
v -1.924591 0.374391 -1.075409
v -2.075409 0.374391 -1.075409
v -2.075409 0.374391 -0.924591
v -1.924591 0.374391 -0.924591
vt 0.664530 0.050904
vt 0.658037 0.229690
vt 0.770538 0.224250
vt 0.781301 0.066805
vt 0.749237 0.171095
vt 0.775684 0.126935
vt 0.658510 0.171002
vt 0.662528 0.110481
vt 0.189458 0.116248
vt 0.199980 0.149977
vt 0.184636 0.178745
vt 0.187188 0.078106
vt 0.281066 0.112675
vt 0.280944 0.153318
vt 0.269308 0.236246
vt 0.276426 0.195812
vt 0.355925 0.158777
vt 0.356674 0.120000
vt 0.356676 0.082459
vt 0.353886 0.197402
vt 0.311870 0.155805
vt 0.313103 0.113739
vt 0.302673 0.244388
vt 0.307964 0.198423
vt 0.313728 0.067976
vt 0.351079 0.234885
vt 0.654544 0.289006
vt 0.279380 0.071280
vt 0.177296 0.215986
vt 0.156254 0.144466
vt 0.815617 0.178309
vt 0.771273 0.285631
vn 0.000000 -0.024628 0.999697
vn 0.000000 -0.024628 0.999697
vn 0.000000 -0.000167 1.000000
vn 0.000000 -0.000167 1.000000
vn 0.000000 1.000000 0.000000
vn 0.000000 1.000000 0.000000
vn 0.000000 1.000000 0.000000
vn 0.000000 1.000000 0.000000
vn 0.000000 -0.000167 -1.000000
vn 0.000000 -0.000167 -1.000000
vn 0.000000 -0.024628 -0.999697
vn 0.000000 -0.024628 -0.999697
vn 0.000000 -1.000000 0.000000
vn 0.000000 -1.000000 0.000000
vn 0.000000 -1.000000 0.000000
vn 0.000000 -1.000000 0.000000
vn 0.999697 -0.024628 0.000000
vn 0.999697 -0.024628 0.000000
vn 1.000000 -0.000167 0.000000
vn 1.000000 -0.000167 0.000000
vn -0.999697 -0.024628 0.000000
vn -0.999697 -0.024628 0.000000
vn -1.000000 -0.000167 0.000000
vn -1.000000 -0.000167 0.000000
vn 0.000000 -0.058959 -0.998260
vn 0.000000 -0.058959 -0.998260
vn 0.000000 -0.018945 -0.999821
vn 0.000000 -0.018945 -0.999821
vn -0.999821 -0.018944 0.000000
vn -0.999821 -0.018944 0.000000
vn -0.998260 -0.058959 0.000000
vn -0.998260 -0.058959 0.000000
vn 0.000000 -0.018945 0.999821
vn 0.000000 -0.018945 0.999821
vn 0.000000 -0.058959 0.998260
vn 0.000000 -0.058959 0.998260
vn 0.999821 -0.018945 0.000000
vn 0.999821 -0.018945 0.000000
vn 0.998260 -0.058959 0.000000
vn 0.998260 -0.058959 0.000000
vn 0.000000 -0.014474 -0.999895
vn 0.000000 -0.014474 -0.999895
vn -0.999895 -0.014474 0.000000
vn -0.999895 -0.014474 0.000000
vn 0.000000 -0.014474 0.999895
vn 0.000000 -0.014474 0.999895
vn 0.999895 -0.014474 0.000000
vn 0.999895 -0.014474 0.000000
vn 0.000000 0.026555 -0.999647
vn 0.000000 0.026555 -0.999647
vn -0.999647 0.026554 0.000000
vn -0.999647 0.026554 0.000000
vn 0.000000 0.026555 0.999647
vn 0.000000 0.026555 0.999647
vn 0.999647 0.026554 0.000000
vn 0.999647 0.026554 0.000000
s 1
g pCube2 pCube3 pCube4 pCube5
usemtl initialShadingGroup
f 15/27/1 16/2/2 4/3/3 3/32/4
s off
f 3/31/5 4/3/6 6/5/7 5/6/8
s 2
f 5/6/9 6/5/10 13/7/11 14/8/12
s off
f 7/9/13 8/10/14 2/11/15 1/30/16
s 3
f 16/2/17 13/7/18 6/5/19 4/3/20
s 4
f 14/8/21 15/1/22 3/4/23 5/6/24
s 2
f 10/13/25 9/14/26 8/10/27 7/9/28
s 4
f 7/9/29 1/12/30 11/28/31 10/13/32
s 1
f 1/29/33 2/11/34 12/16/35 11/15/36
s 3
f 2/11/37 8/10/38 9/14/39 12/16/40
s 2
f 14/8/12 13/7/11 17/17/41 18/18/42
s 4
f 18/18/43 19/19/44 15/1/22 14/8/21
s 1
f 19/26/45 20/20/46 16/2/2 15/27/1
s 3
f 20/20/47 17/17/48 13/7/18 16/2/17
s 2
f 18/18/42 17/17/41 21/21/49 22/22/50
s 4
f 22/22/51 23/25/52 19/19/44 18/18/43
s 1
f 23/23/53 24/24/54 20/20/46 19/26/45
s 3
f 24/24/55 21/21/56 17/17/48 20/20/47
s 2
f 22/22/50 21/21/49 9/14/26 10/13/25
s 4
f 10/13/32 11/28/31 23/25/52 22/22/51
s 1
f 11/15/36 12/16/35 24/24/54 23/23/53
s 3
f 12/16/40 9/14/39 21/21/56 24/24/55
g default
v -2.254856 1.698301 1.389022
v 2.254856 1.698301 1.389022
v -2.254856 1.852710 1.389022
v 2.254856 1.852710 1.389022
v -2.254856 1.852710 -1.389022
v 2.254856 1.852710 -1.389022
v -2.254856 1.698301 -1.389022
v 2.254856 1.698301 -1.389022
vt 0.256021 0.649195
vt 0.273235 0.632322
vt 0.788046 0.637464
vt 0.273064 0.649365
vt 0.791108 0.330832
vt 0.771003 0.637293
vt 0.774065 0.330661
vt 0.770833 0.654337
vt 0.767770 0.960968
vt 0.270002 0.955997
vt 0.276467 0.308646
vt 0.774236 0.313618
vt 0.276297 0.325690
vt 0.252958 0.955826
vn 0.000000 0.000000 1.000000
vn 0.000000 0.000000 1.000000
vn 0.000000 0.000000 1.000000
vn 0.000000 0.000000 1.000000
vn 0.000000 1.000000 0.000000
vn 0.000000 1.000000 0.000000
vn 0.000000 1.000000 0.000000
vn 0.000000 1.000000 0.000000
vn 0.000000 0.000000 -1.000000
vn 0.000000 0.000000 -1.000000
vn 0.000000 0.000000 -1.000000
vn 0.000000 0.000000 -1.000000
vn 0.000000 -1.000000 0.000000
vn 0.000000 -1.000000 0.000000
vn 0.000000 -1.000000 0.000000
vn 0.000000 -1.000000 0.000000
vn 1.000000 0.000000 0.000000
vn 1.000000 0.000000 0.000000
vn 1.000000 0.000000 0.000000
vn 1.000000 0.000000 0.000000
vn -1.000000 0.000000 0.000000
vn -1.000000 0.000000 0.000000
vn -1.000000 0.000000 0.000000
vn -1.000000 0.000000 0.000000
s off
g pCube1
usemtl initialShadingGroup
f 25/34/57 26/38/58 28/40/59 27/36/60
f 27/36/61 28/40/62 30/41/63 29/42/64
f 29/43/65 30/44/66 32/39/67 31/45/68
f 31/45/69 32/39/70 26/38/71 25/34/72
f 26/38/73 32/39/74 30/37/75 28/35/76
f 31/46/77 25/33/78 27/36/79 29/42/80
g default
v 1.941708 0.000000 1.058292
v 2.058292 0.000000 1.058292
v 1.908049 1.776384 1.091951
v 2.091951 1.776384 1.091951
v 1.908049 1.776384 0.908049
v 2.091951 1.776384 0.908049
v 1.941708 0.000000 0.941708
v 2.058292 0.000000 0.941708
v 2.063533 0.276582 0.936467
v 1.936467 0.276582 0.936467
v 1.936467 0.276582 1.063533
v 2.063533 0.276582 1.063533
v 2.091895 1.440714 0.908105
v 1.908105 1.440714 0.908105
v 1.908105 1.440714 1.091895
v 2.091895 1.440714 1.091895
v 2.055968 0.510329 0.944032
v 1.944032 0.510329 0.944032
v 1.944032 0.510329 1.055968
v 2.055968 0.510329 1.055968
v 2.075409 0.374391 0.924591
v 1.924591 0.374391 0.924591
v 1.924591 0.374391 1.075409
v 2.075409 0.374391 1.075409
vt 0.664530 0.050904
vt 0.658037 0.229690
vt 0.770538 0.224250
vt 0.781301 0.066805
vt 0.749237 0.171095
vt 0.775684 0.126935
vt 0.658510 0.171002
vt 0.662528 0.110481
vt 0.189458 0.116248
vt 0.199980 0.149977
vt 0.184636 0.178745
vt 0.187188 0.078106
vt 0.281066 0.112675
vt 0.280944 0.153318
vt 0.269308 0.236246
vt 0.276426 0.195812
vt 0.355925 0.158777
vt 0.356674 0.120000
vt 0.356676 0.082459
vt 0.353886 0.197402
vt 0.311870 0.155805
vt 0.313103 0.113739
vt 0.302673 0.244388
vt 0.307964 0.198423
vt 0.313728 0.067976
vt 0.351079 0.234885
vt 0.654544 0.289006
vt 0.279380 0.071280
vt 0.177296 0.215986
vt 0.156254 0.144466
vt 0.815617 0.178309
vt 0.771273 0.285631
vn 0.000000 -0.024628 0.999697
vn 0.000000 -0.024628 0.999697
vn 0.000000 -0.000167 1.000000
vn 0.000000 -0.000167 1.000000
vn 0.000000 1.000000 0.000000
vn 0.000000 1.000000 0.000000
vn 0.000000 1.000000 0.000000
vn 0.000000 1.000000 0.000000
vn 0.000000 -0.000167 -1.000000
vn 0.000000 -0.000167 -1.000000
vn 0.000000 -0.024628 -0.999697
vn 0.000000 -0.024628 -0.999697
vn 0.000000 -1.000000 0.000000
vn 0.000000 -1.000000 0.000000
vn 0.000000 -1.000000 0.000000
vn 0.000000 -1.000000 0.000000
vn 0.999697 -0.024628 0.000000
vn 0.999697 -0.024628 0.000000
vn 1.000000 -0.000167 0.000000
vn 1.000000 -0.000167 0.000000
vn -0.999697 -0.024628 0.000000
vn -0.999697 -0.024628 0.000000
vn -1.000000 -0.000167 0.000000
vn -1.000000 -0.000167 0.000000
vn 0.000000 -0.058959 -0.998260
vn 0.000000 -0.058959 -0.998260
vn 0.000000 -0.018945 -0.999821
vn 0.000000 -0.018945 -0.999821
vn -0.999821 -0.018944 0.000000
vn -0.999821 -0.018944 0.000000
vn -0.998260 -0.058959 0.000000
vn -0.998260 -0.058959 0.000000
vn 0.000000 -0.018945 0.999821
vn 0.000000 -0.018945 0.999821
vn 0.000000 -0.058959 0.998260
vn 0.000000 -0.058959 0.998260
vn 0.999821 -0.018945 0.000000
vn 0.999821 -0.018945 0.000000
vn 0.998260 -0.058959 0.000000
vn 0.998260 -0.058959 0.000000
vn 0.000000 -0.014474 -0.999895
vn 0.000000 -0.014474 -0.999895
vn -0.999895 -0.014474 0.000000
vn -0.999895 -0.014474 0.000000
vn 0.000000 -0.014474 0.999895
vn 0.000000 -0.014474 0.999895
vn 0.999895 -0.014474 0.000000
vn 0.999895 -0.014474 0.000000
vn 0.000000 0.026555 -0.999647
vn 0.000000 0.026555 -0.999647
vn -0.999647 0.026554 0.000000
vn -0.999647 0.026554 0.000000
vn 0.000000 0.026555 0.999647
vn 0.000000 0.026555 0.999647
vn 0.999647 0.026554 0.000000
vn 0.999647 0.026554 0.000000
s 1
g pCube2 pCube3 pCube4 pCube5
usemtl initialShadingGroup
f 47/73/81 48/48/82 36/49/83 35/78/84
s off
f 35/77/85 36/49/86 38/51/87 37/52/88
s 2
f 37/52/89 38/51/90 45/53/91 46/54/92
s off
f 39/55/93 40/56/94 34/57/95 33/76/96
s 3
f 48/48/97 45/53/98 38/51/99 36/49/100
s 4
f 46/54/101 47/47/102 35/50/103 37/52/104
s 2
f 42/59/105 41/60/106 40/56/107 39/55/108
s 4
f 39/55/109 33/58/110 43/74/111 42/59/112
s 1
f 33/75/113 34/57/114 44/62/115 43/61/116
s 3
f 34/57/117 40/56/118 41/60/119 44/62/120
s 2
f 46/54/92 45/53/91 49/63/121 50/64/122
s 4
f 50/64/123 51/65/124 47/47/102 46/54/101
s 1
f 51/72/125 52/66/126 48/48/82 47/73/81
s 3
f 52/66/127 49/63/128 45/53/98 48/48/97
s 2
f 50/64/122 49/63/121 53/67/129 54/68/130
s 4
f 54/68/131 55/71/132 51/65/124 50/64/123
s 1
f 55/69/133 56/70/134 52/66/126 51/72/125
s 3
f 56/70/135 53/67/136 49/63/128 52/66/127
s 2
f 54/68/130 53/67/129 41/60/106 42/59/105
s 4
f 42/59/112 43/74/111 55/71/132 54/68/131
s 1
f 43/61/116 44/62/115 56/70/134 55/69/133
s 3
f 44/62/120 41/60/119 53/67/136 56/70/135
g default
v -2.058292 0.000000 1.058292
v -1.941708 0.000000 1.058292
v -2.091951 1.776384 1.091951
v -1.908049 1.776384 1.091951
v -2.091951 1.776384 0.908049
v -1.908049 1.776384 0.908049
v -2.058292 0.000000 0.941708
v -1.941708 0.000000 0.941708
v -1.936467 0.276582 0.936467
v -2.063533 0.276582 0.936467
v -2.063533 0.276582 1.063533
v -1.936467 0.276582 1.063533
v -1.908105 1.440714 0.908105
v -2.091895 1.440714 0.908105
v -2.091895 1.440714 1.091895
v -1.908105 1.440714 1.091895
v -1.944032 0.510329 0.944032
v -2.055968 0.510329 0.944032
v -2.055968 0.510329 1.055968
v -1.944032 0.510329 1.055968
v -1.924591 0.374391 0.924591
v -2.075409 0.374391 0.924591
v -2.075409 0.374391 1.075409
v -1.924591 0.374391 1.075409
vt 0.664530 0.050904
vt 0.658037 0.229690
vt 0.770538 0.224250
vt 0.781301 0.066805
vt 0.749237 0.171095
vt 0.775684 0.126935
vt 0.658510 0.171002
vt 0.662528 0.110481
vt 0.189458 0.116248
vt 0.199980 0.149977
vt 0.184636 0.178745
vt 0.187188 0.078106
vt 0.281066 0.112675
vt 0.280944 0.153318
vt 0.269308 0.236246
vt 0.276426 0.195812
vt 0.355925 0.158777
vt 0.356674 0.120000
vt 0.356676 0.082459
vt 0.353886 0.197402
vt 0.311870 0.155805
vt 0.313103 0.113739
vt 0.302673 0.244388
vt 0.307964 0.198423
vt 0.313728 0.067976
vt 0.351079 0.234885
vt 0.654544 0.289006
vt 0.279380 0.071280
vt 0.177296 0.215986
vt 0.156254 0.144466
vt 0.815617 0.178309
vt 0.771273 0.285631
vn 0.000000 -0.024628 0.999697
vn 0.000000 -0.024628 0.999697
vn 0.000000 -0.000167 1.000000
vn 0.000000 -0.000167 1.000000
vn 0.000000 1.000000 0.000000
vn 0.000000 1.000000 0.000000
vn 0.000000 1.000000 0.000000
vn 0.000000 1.000000 0.000000
vn 0.000000 -0.000167 -1.000000
vn 0.000000 -0.000167 -1.000000
vn 0.000000 -0.024628 -0.999697
vn 0.000000 -0.024628 -0.999697
vn 0.000000 -1.000000 0.000000
vn 0.000000 -1.000000 0.000000
vn 0.000000 -1.000000 0.000000
vn 0.000000 -1.000000 0.000000
vn 0.999697 -0.024628 0.000000
vn 0.999697 -0.024628 0.000000
vn 1.000000 -0.000167 0.000000
vn 1.000000 -0.000167 0.000000
vn -0.999697 -0.024628 0.000000
vn -0.999697 -0.024628 0.000000
vn -1.000000 -0.000167 0.000000
vn -1.000000 -0.000167 0.000000
vn 0.000000 -0.058959 -0.998260
vn 0.000000 -0.058959 -0.998260
vn 0.000000 -0.018945 -0.999821
vn 0.000000 -0.018945 -0.999821
vn -0.999821 -0.018944 0.000000
vn -0.999821 -0.018944 0.000000
vn -0.998260 -0.058959 0.000000
vn -0.998260 -0.058959 0.000000
vn 0.000000 -0.018945 0.999821
vn 0.000000 -0.018945 0.999821
vn 0.000000 -0.058959 0.998260
vn 0.000000 -0.058959 0.998260
vn 0.999821 -0.018945 0.000000
vn 0.999821 -0.018945 0.000000
vn 0.998260 -0.058959 0.000000
vn 0.998260 -0.058959 0.000000
vn 0.000000 -0.014474 -0.999895
vn 0.000000 -0.014474 -0.999895
vn -0.999895 -0.014474 0.000000
vn -0.999895 -0.014474 0.000000
vn 0.000000 -0.014474 0.999895
vn 0.000000 -0.014474 0.999895
vn 0.999895 -0.014474 0.000000
vn 0.999895 -0.014474 0.000000
vn 0.000000 0.026555 -0.999647
vn 0.000000 0.026555 -0.999647
vn -0.999647 0.026554 0.000000
vn -0.999647 0.026554 0.000000
vn 0.000000 0.026555 0.999647
vn 0.000000 0.026555 0.999647
vn 0.999647 0.026554 0.000000
vn 0.999647 0.026554 0.000000
s 1
g pCube2 pCube3 pCube4 pCube5
usemtl initialShadingGroup
f 71/105/137 72/80/138 60/81/139 59/110/140
s off
f 59/109/141 60/81/142 62/83/143 61/84/144
s 2
f 61/84/145 62/83/146 69/85/147 70/86/148
s off
f 63/87/149 64/88/150 58/89/151 57/108/152
s 3
f 72/80/153 69/85/154 62/83/155 60/81/156
s 4
f 70/86/157 71/79/158 59/82/159 61/84/160
s 2
f 66/91/161 65/92/162 64/88/163 63/87/164
s 4
f 63/87/165 57/90/166 67/106/167 66/91/168
s 1
f 57/107/169 58/89/170 68/94/171 67/93/172
s 3
f 58/89/173 64/88/174 65/92/175 68/94/176
s 2
f 70/86/148 69/85/147 73/95/177 74/96/178
s 4
f 74/96/179 75/97/180 71/79/158 70/86/157
s 1
f 75/104/181 76/98/182 72/80/138 71/105/137
s 3
f 76/98/183 73/95/184 69/85/154 72/80/153
s 2
f 74/96/178 73/95/177 77/99/185 78/100/186
s 4
f 78/100/187 79/103/188 75/97/180 74/96/179
s 1
f 79/101/189 80/102/190 76/98/182 75/104/181
s 3
f 80/102/191 77/99/192 73/95/184 76/98/183
s 2
f 78/100/186 77/99/185 65/92/162 66/91/161
s 4
f 66/91/168 67/106/167 79/103/188 78/100/187
s 1
f 67/93/172 68/94/171 80/102/190 79/101/189
s 3
f 68/94/176 65/92/175 77/99/192 80/102/191
g default
v 1.941708 0.000000 -0.941708
v 2.058292 0.000000 -0.941708
v 1.908049 1.776384 -0.908049
v 2.091951 1.776384 -0.908049
v 1.908049 1.776384 -1.091951
v 2.091951 1.776384 -1.091951
v 1.941708 0.000000 -1.058292
v 2.058292 0.000000 -1.058292
v 2.063533 0.276582 -1.063533
v 1.936467 0.276582 -1.063533
v 1.936467 0.276582 -0.936467
v 2.063533 0.276582 -0.936467
v 2.091895 1.440714 -1.091895
v 1.908105 1.440714 -1.091895
v 1.908105 1.440714 -0.908105
v 2.091895 1.440714 -0.908105
v 2.055968 0.510329 -1.055968
v 1.944032 0.510329 -1.055968
v 1.944032 0.510329 -0.944032
v 2.055968 0.510329 -0.944032
v 2.075409 0.374391 -1.075409
v 1.924591 0.374391 -1.075409
v 1.924591 0.374391 -0.924591
v 2.075409 0.374391 -0.924591
vt 0.664530 0.050904
vt 0.658037 0.229690
vt 0.770538 0.224250
vt 0.781301 0.066805
vt 0.749237 0.171095
vt 0.775684 0.126935
vt 0.658510 0.171002
vt 0.662528 0.110481
vt 0.189458 0.116248
vt 0.199980 0.149977
vt 0.184636 0.178745
vt 0.187188 0.078106
vt 0.281066 0.112675
vt 0.280944 0.153318
vt 0.269308 0.236246
vt 0.276426 0.195812
vt 0.355925 0.158777
vt 0.356674 0.120000
vt 0.356676 0.082459
vt 0.353886 0.197402
vt 0.311870 0.155805
vt 0.313103 0.113739
vt 0.302673 0.244388
vt 0.307964 0.198423
vt 0.313728 0.067976
vt 0.351079 0.234885
vt 0.654544 0.289006
vt 0.279380 0.071280
vt 0.177296 0.215986
vt 0.156254 0.144466
vt 0.815617 0.178309
vt 0.771273 0.285631
vn 0.000000 -0.024628 0.999697
vn 0.000000 -0.024628 0.999697
vn 0.000000 -0.000167 1.000000
vn 0.000000 -0.000167 1.000000
vn 0.000000 1.000000 0.000000
vn 0.000000 1.000000 0.000000
vn 0.000000 1.000000 0.000000
vn 0.000000 1.000000 0.000000
vn 0.000000 -0.000167 -1.000000
vn 0.000000 -0.000167 -1.000000
vn 0.000000 -0.024628 -0.999697
vn 0.000000 -0.024628 -0.999697
vn 0.000000 -1.000000 0.000000
vn 0.000000 -1.000000 0.000000
vn 0.000000 -1.000000 0.000000
vn 0.000000 -1.000000 0.000000
vn 0.999697 -0.024628 0.000000
vn 0.999697 -0.024628 0.000000
vn 1.000000 -0.000167 0.000000
vn 1.000000 -0.000167 0.000000
vn -0.999697 -0.024628 0.000000
vn -0.999697 -0.024628 0.000000
vn -1.000000 -0.000167 0.000000
vn -1.000000 -0.000167 0.000000
vn 0.000000 -0.058959 -0.998260
vn 0.000000 -0.058959 -0.998260
vn 0.000000 -0.018945 -0.999821
vn 0.000000 -0.018945 -0.999821
vn -0.999821 -0.018944 0.000000
vn -0.999821 -0.018944 0.000000
vn -0.998260 -0.058959 0.000000
vn -0.998260 -0.058959 0.000000
vn 0.000000 -0.018945 0.999821
vn 0.000000 -0.018945 0.999821
vn 0.000000 -0.058959 0.998260
vn 0.000000 -0.058959 0.998260
vn 0.999821 -0.018945 0.000000
vn 0.999821 -0.018945 0.000000
vn 0.998260 -0.058959 0.000000
vn 0.998260 -0.058959 0.000000
vn 0.000000 -0.014474 -0.999895
vn 0.000000 -0.014474 -0.999895
vn -0.999895 -0.014474 0.000000
vn -0.999895 -0.014474 0.000000
vn 0.000000 -0.014474 0.999895
vn 0.000000 -0.014474 0.999895
vn 0.999895 -0.014474 0.000000
vn 0.999895 -0.014474 0.000000
vn 0.000000 0.026555 -0.999647
vn 0.000000 0.026555 -0.999647
vn -0.999647 0.026554 0.000000
vn -0.999647 0.026554 0.000000
vn 0.000000 0.026555 0.999647
vn 0.000000 0.026555 0.999647
vn 0.999647 0.026554 0.000000
vn 0.999647 0.026554 0.000000
s 1
g pCube2 pCube3 pCube4 pCube5
usemtl initialShadingGroup
f 95/137/193 96/112/194 84/113/195 83/142/196
s off
f 83/141/197 84/113/198 86/115/199 85/116/200
s 2
f 85/116/201 86/115/202 93/117/203 94/118/204
s off
f 87/119/205 88/120/206 82/121/207 81/140/208
s 3
f 96/112/209 93/117/210 86/115/211 84/113/212
s 4
f 94/118/213 95/111/214 83/114/215 85/116/216
s 2
f 90/123/217 89/124/218 88/120/219 87/119/220
s 4
f 87/119/221 81/122/222 91/138/223 90/123/224
s 1
f 81/139/225 82/121/226 92/126/227 91/125/228
s 3
f 82/121/229 88/120/230 89/124/231 92/126/232
s 2
f 94/118/204 93/117/203 97/127/233 98/128/234
s 4
f 98/128/235 99/129/236 95/111/214 94/118/213
s 1
f 99/136/237 100/130/238 96/112/194 95/137/193
s 3
f 100/130/239 97/127/240 93/117/210 96/112/209
s 2
f 98/128/234 97/127/233 101/131/241 102/132/242
s 4
f 102/132/243 103/135/244 99/129/236 98/128/235
s 1
f 103/133/245 104/134/246 100/130/238 99/136/237
s 3
f 104/134/247 101/131/248 97/127/240 100/130/239
s 2
f 102/132/242 101/131/241 89/124/218 90/123/217
s 4
f 90/123/224 91/138/223 103/135/244 102/132/243
s 1
f 91/125/228 92/126/227 104/134/246 103/133/245
s 3
f 92/126/232 89/124/231 101/131/248 104/134/247
